# Blender v3.1.2 OBJ File: 'bolt cutters.blend'
# www.blender.org
mtllib bolt cutters.mtl
o Cube_Cube.001
v -0.394465 -0.351812 0.422545
v -0.924988 -0.351812 0.423939
v -0.534550 -0.351812 -0.500870
v -0.534550 0.432374 -0.500870
v 0.000000 -0.275186 0.130065
v 0.000000 0.355749 0.130065
v 0.000000 -0.275186 -0.500870
v 0.000000 0.355749 -0.500870
v -1.180506 0.432374 -0.893553
v -1.180506 -0.351812 -0.893553
v -0.263645 -0.351812 -0.893553
v -0.263645 0.432374 -0.893553
v -0.143059 -0.275186 0.130065
v -0.534550 -0.351812 -0.245603
v -0.534550 0.432374 -0.245603
v -0.166405 0.432374 0.007987
v -0.394465 0.432374 0.422545
v -0.544619 -0.242956 -4.048697
v -1.328203 -0.242956 -4.048697
v -0.694872 -0.154468 -4.048697
v -1.371213 -0.154468 -5.404758
v -1.371213 0.235031 -5.404758
v -1.233652 0.235031 -4.048697
v -0.694872 0.235031 -4.048697
v -1.233652 -0.154468 -4.048697
v -1.356244 0.235031 -5.257194
v -1.356244 -0.154468 -5.257194
v -0.817463 0.235031 -5.257194
v -0.832433 -0.154468 -5.404758
v -0.832433 0.235031 -5.404758
v -0.924988 0.432374 0.423939
v -0.817463 -0.154468 -5.257194
v -0.387193 -0.154468 -1.015631
v -0.041558 -0.351812 -0.475855
v -0.041558 -0.351812 0.007987
v 0.000000 0.432374 -0.475855
v 0.000000 0.432374 0.007987
v -0.925974 0.235031 -1.015631
v -0.925974 -0.154468 -1.015631
v -0.387193 0.235031 -1.015631
v -0.166405 -0.351812 0.007987
v -0.143059 0.355749 0.130065
v -0.018841 0.022603 1.732841
v -0.286911 -0.241421 1.733716
v -0.286911 0.321983 1.733716
v -0.018841 0.057960 1.732841
v -0.140057 -0.241421 3.009908
v -0.014674 0.022601 3.009499
v -0.014674 0.057962 3.009499
v -0.140057 0.321983 3.009908
v -0.594673 0.355749 0.545240
v -0.326435 0.091723 0.544365
v -0.219594 0.355749 0.302979
v -0.394444 0.432350 0.422584
v -0.326435 -0.011161 0.544365
v -0.594673 -0.275186 0.545240
v -0.394444 -0.351788 0.422584
v -0.219594 -0.275186 0.302979
v -0.857707 0.204869 0.546099
v -0.704408 0.355749 0.545598
v -0.921493 0.428394 0.430284
v -1.157536 0.171105 1.736558
v -1.004334 0.321983 1.736058
v -1.004334 -0.241421 1.736058
v -1.157536 -0.090543 1.736558
v -1.003644 0.321983 1.974833
v -1.156677 0.171108 1.999904
v -0.140057 0.321983 3.009908
v -0.140057 0.171110 3.009908
v -0.742459 0.321983 2.599615
v -0.857546 0.171109 2.715455
v -0.140057 -0.090547 3.009908
v -0.140057 -0.241421 3.009908
v -1.003644 -0.241421 1.974833
v -1.156677 -0.090546 1.999904
v -0.742459 -0.241421 2.599615
v -0.857546 -0.090547 2.715455
v -0.704408 -0.275186 0.545598
v -0.857707 -0.124307 0.546099
v -0.921493 -0.347832 0.430284
v -1.506496 0.323518 -5.257194
v -1.328203 0.323518 -4.048697
v -0.722912 0.323518 -5.257194
v -0.544619 0.323518 -4.048697
v -1.506496 -0.242956 -5.257194
v -0.722912 -0.242956 -5.257194
v 0.394465 -0.351812 0.422545
v 0.924988 -0.351812 0.423939
v 0.534550 -0.351812 -0.500870
v 0.534550 0.432374 -0.500870
v 1.180506 0.432374 -0.893553
v 1.180506 -0.351812 -0.893553
v 0.263645 -0.351812 -0.893553
v 0.263645 0.432374 -0.893553
v 0.143059 -0.275186 0.130065
v 0.534550 -0.351812 -0.245603
v 0.534550 0.432374 -0.245603
v 0.166405 0.432374 0.007987
v 0.394465 0.432374 0.422545
v 0.544619 -0.242956 -4.048697
v 1.328203 -0.242956 -4.048697
v 0.694872 -0.154468 -4.048697
v 1.371213 -0.154468 -5.404758
v 1.371213 0.235031 -5.404758
v 1.233652 0.235031 -4.048697
v 0.694872 0.235031 -4.048697
v 1.233652 -0.154468 -4.048697
v 1.356244 0.235031 -5.257194
v 1.356244 -0.154468 -5.257194
v 0.817463 0.235031 -5.257194
v 0.832433 -0.154468 -5.404758
v 0.832433 0.235031 -5.404758
v 0.924988 0.432374 0.423939
v 0.817463 -0.154468 -5.257194
v 0.387193 -0.154468 -1.015631
v 0.041558 -0.351812 -0.475855
v 0.041558 -0.351812 0.007987
v 0.925974 0.235031 -1.015631
v 0.925974 -0.154468 -1.015631
v 0.387193 0.235031 -1.015631
v 0.166405 -0.351812 0.007987
v 0.143059 0.355749 0.130065
v 0.018841 0.022603 1.732841
v 0.286911 -0.241421 1.733716
v 0.286911 0.321983 1.733716
v 0.018841 0.057960 1.732841
v 0.140057 -0.241421 3.009908
v 0.014674 0.022601 3.009499
v 0.014674 0.057962 3.009499
v 0.140057 0.321983 3.009908
v 0.594673 0.355749 0.545240
v 0.326435 0.091723 0.544365
v 0.219594 0.355749 0.302979
v 0.394444 0.432350 0.422584
v 0.326435 -0.011161 0.544365
v 0.594673 -0.275186 0.545240
v 0.394444 -0.351788 0.422584
v 0.219594 -0.275186 0.302979
v 0.857707 0.204869 0.546099
v 0.704408 0.355749 0.545598
v 0.921493 0.428394 0.430284
v 1.157536 0.171105 1.736558
v 1.004334 0.321983 1.736058
v 1.004334 -0.241421 1.736058
v 1.157536 -0.090543 1.736558
v 1.003644 0.321983 1.974833
v 1.156677 0.171108 1.999904
v 0.140057 0.321983 3.009908
v 0.140057 0.171110 3.009908
v 0.742459 0.321983 2.599615
v 0.857546 0.171109 2.715455
v 0.140057 -0.090547 3.009908
v 0.140057 -0.241421 3.009908
v 1.003644 -0.241421 1.974833
v 1.156677 -0.090546 1.999904
v 0.742459 -0.241421 2.599615
v 0.857546 -0.090547 2.715455
v 0.704408 -0.275186 0.545598
v 0.857707 -0.124307 0.546099
v 0.921493 -0.347832 0.430284
v 1.506496 0.323518 -5.257194
v 1.328203 0.323518 -4.048697
v 0.722912 0.323518 -5.257194
v 0.544619 0.323518 -4.048697
v 1.506496 -0.242956 -5.257194
v 0.722912 -0.242956 -5.257194
vt 0.690587 0.500000
vt 0.875000 0.500000
vt 0.875000 0.601146
vt 0.738452 0.713410
vt 0.683836 0.701628
vt 0.375000 0.148854
vt 0.625000 0.148854
vt 0.625000 0.250000
vt 0.375000 0.250000
vt 0.125000 0.500000
vt 0.316164 0.509912
vt 0.316164 0.701628
vt 0.261548 0.713410
vt 0.125000 0.601146
vt 0.375000 0.500000
vt 0.375000 0.750000
vt 0.375000 0.500000
vt 0.625000 0.500000
vt 0.625000 0.500000
vt 0.375000 0.500000
vt 0.625000 0.500000
vt 0.375000 0.500000
vt 0.375000 0.500000
vt 0.625000 0.500000
vt 0.875000 0.500000
vt 0.875000 0.500000
vt 0.875000 0.500000
vt 0.875000 0.500000
vt 0.375000 0.250000
vt 0.625000 0.250000
vt 0.625000 0.250000
vt 0.375000 0.250000
vt 0.125000 0.500000
vt 0.125000 0.500000
vt 0.125000 0.500000
vt 0.125000 0.500000
vt 0.375000 0.250000
vt 0.625000 0.250000
vt 0.625000 0.250000
vt 0.375000 0.250000
vt 0.738452 0.713410
vt 0.875000 0.601146
vt 0.875000 0.500000
vt 0.375000 0.148854
vt 0.375000 0.250000
vt 0.625000 0.250000
vt 0.625000 0.148854
vt 0.125000 0.500000
vt 0.125000 0.601146
vt 0.261548 0.713410
vt 0.316164 0.701628
vt 0.316164 0.509912
vt 0.375000 0.500000
vt 0.375000 0.500000
vt 0.625000 0.500000
vt 0.625000 0.500000
vt 0.625000 0.500000
vt 0.625000 0.500000
vt 0.375000 0.500000
vt 0.375000 0.500000
vt 0.875000 0.500000
vt 0.875000 0.500000
vt 0.875000 0.500000
vt 0.875000 0.500000
vt 0.375000 0.250000
vt 0.375000 0.250000
vt 0.625000 0.250000
vt 0.625000 0.250000
vt 0.125000 0.500000
vt 0.125000 0.500000
vt 0.125000 0.500000
vt 0.125000 0.500000
vt 0.375000 0.250000
vt 0.625000 0.250000
vt 0.625000 0.250000
vt 0.375000 0.250000
vt 0.625000 0.750000
vt 0.625000 0.818947
vt 0.375000 0.818947
vt 0.673123 0.500000
vt 0.900021 0.500000
vt 0.375000 0.500000
vt 0.625000 0.500000
vt 0.625000 0.250000
vt 0.375000 0.250000
vt 0.099979 0.500000
vt 0.326877 0.500000
vt 0.375000 0.500000
vt 0.625000 0.500000
vt 0.625000 0.500000
vt 0.884342 0.593466
vt 0.739210 0.712787
vt 0.260790 0.712787
vt 0.115658 0.593466
vt 0.375000 0.148854
vt 0.625000 0.148854
vt 0.739195 0.712799
vt 0.693947 0.750000
vt 0.693947 0.750000
vt 0.260805 0.712799
vt 0.214640 0.674844
vt 0.177243 0.644098
vt 0.116143 0.593865
vt 0.625000 0.818947
vt 0.520383 0.818947
vt 0.479617 0.818947
vt 0.375000 0.818947
vt 0.375000 0.250000
vt 0.625000 0.250000
vt 0.125000 0.500000
vt 0.875000 0.500000
vt 0.883857 0.593865
vt 0.822757 0.644098
vt 0.785360 0.674844
vt 0.306053 0.750000
vt 0.306053 0.750000
vt 0.625000 0.250000
vt 0.375000 0.250000
vt 0.125000 0.500000
vt 0.875000 0.500000
vt 0.625000 0.818947
vt 0.625000 0.818947
vt 0.375000 0.818947
vt 0.375000 0.818947
vt 0.565216 0.148854
vt 0.625000 0.148854
vt 0.625000 0.148854
vt 0.125000 0.601146
vt 0.375000 0.148853
vt 0.434784 0.148854
vt 0.375000 0.818947
vt 0.625000 0.818947
vt 0.900021 0.500000
vt 0.673123 0.500000
vt 0.625000 0.500000
vt 0.375000 0.500000
vt 0.375000 0.250000
vt 0.625000 0.250000
vt 0.326877 0.500000
vt 0.099979 0.500000
vt 0.375000 0.500000
vt 0.625000 0.500000
vt 0.739210 0.712787
vt 0.884342 0.593466
vt 0.115658 0.593466
vt 0.260790 0.712787
vt 0.625000 0.148854
vt 0.375000 0.148854
vt 0.693947 0.750000
vt 0.693947 0.750000
vt 0.739195 0.712799
vt 0.116143 0.593865
vt 0.177243 0.644098
vt 0.214640 0.674844
vt 0.260805 0.712799
vt 0.375000 0.818947
vt 0.479617 0.818947
vt 0.520383 0.818947
vt 0.625000 0.818947
vt 0.375000 0.250000
vt 0.625000 0.250000
vt 0.125000 0.500000
vt 0.875000 0.500000
vt 0.785360 0.674844
vt 0.822757 0.644098
vt 0.883857 0.593865
vt 0.306053 0.750000
vt 0.306053 0.750000
vt 0.375000 0.250000
vt 0.625000 0.250000
vt 0.125000 0.500000
vt 0.875000 0.500000
vt 0.625000 0.818947
vt 0.625000 0.818947
vt 0.375000 0.818947
vt 0.375000 0.818947
vt 0.565216 0.148854
vt 0.625000 0.148854
vt 0.625000 0.148854
vt 0.125000 0.601146
vt 0.434784 0.148854
vt 0.375000 0.148853
vt 0.558052 0.148854
vt 0.441948 0.148854
vt 0.441947 0.148854
vt 0.558053 0.148854
vt 0.263430 0.714957
vt 0.149359 0.621174
vt 0.507845 0.818947
vt 0.492155 0.818947
vt 0.850641 0.621174
vt 0.736570 0.714957
vt 0.558051 0.148854
vt 0.441949 0.148854
vt 0.286117 0.733609
vt 0.286117 0.733609
vt 0.190549 0.655038
vt 0.149345 0.621162
vt 0.441947 0.016391
vt 0.558053 0.016391
vt 0.375000 0.016391
vt 0.492155 0.000000
vt 0.507845 0.000000
vt 0.625000 0.016391
vt 0.625000 0.016391
vt 0.375000 0.016391
vt 0.850655 0.621162
vt 0.809451 0.655038
vt 0.713883 0.733609
vt 0.713883 0.733609
vt 0.625000 0.818947
vt 0.375000 0.818947
vt 0.507845 0.818947
vt 0.625000 0.818947
vt 0.492155 0.818947
vt 0.375000 0.818947
vt 0.125000 0.601146
vt 0.625000 0.148854
vt 0.625000 0.148854
vt 0.625000 0.148854
vt 0.172190 0.639944
vt 0.125000 0.601146
vt 0.625000 0.138181
vt 0.286117 0.733609
vt 0.558052 0.148854
vt 0.558053 0.148854
vt 0.441947 0.148854
vt 0.441948 0.148854
vt 0.149359 0.621174
vt 0.263430 0.714957
vt 0.492155 0.818947
vt 0.507845 0.818947
vt 0.736570 0.714957
vt 0.850641 0.621174
vt 0.558051 0.148854
vt 0.441949 0.148854
vt 0.149345 0.621162
vt 0.190549 0.655038
vt 0.286117 0.733609
vt 0.286117 0.733609
vt 0.558053 0.016391
vt 0.441947 0.016391
vt 0.375000 0.016391
vt 0.375000 0.016391
vt 0.625000 0.016391
vt 0.625000 0.016391
vt 0.507845 0.000000
vt 0.492155 0.000000
vt 0.713883 0.733609
vt 0.713883 0.733609
vt 0.809451 0.655038
vt 0.850655 0.621162
vt 0.625000 0.818947
vt 0.375000 0.818947
vt 0.507845 0.818947
vt 0.625000 0.818947
vt 0.375000 0.818947
vt 0.492155 0.818947
vt 0.125000 0.601146
vt 0.625000 0.148854
vt 0.625000 0.148854
vt 0.625000 0.148854
vt 0.125000 0.601146
vt 0.172190 0.639944
vt 0.625000 0.138181
vt 0.286117 0.733609
vn 0.0000 1.0000 -0.0000
vn -1.0000 0.0000 0.0000
vn 0.0000 -1.0000 0.0000
vn 0.8790 -0.4767 0.0000
vn 0.0000 0.0000 -1.0000
vn 0.0000 0.0000 1.0000
vn -0.9893 0.0000 0.1460
vn 0.9893 0.0000 -0.1460
vn 1.0000 0.0000 0.0000
vn -0.8790 -0.4767 0.0000
vn 0.9893 0.0000 0.1460
vn -0.9893 0.0000 -0.1460
vn 0.9949 0.0000 -0.1009
vn -0.5195 0.0000 0.8545
vn 0.7992 0.0000 -0.6011
vn -0.8639 -0.0000 -0.5037
vn 0.5809 0.7562 0.3012
vn 0.0015 -0.8472 0.5312
vn 0.9144 -0.0000 0.4047
vn -0.9949 0.0000 0.1009
vn 0.0015 0.8472 0.5312
vn 0.8335 -0.0462 -0.5506
vn 0.5809 -0.7562 0.3012
vn -0.4325 0.0000 -0.9017
vn 0.0000 -0.5261 -0.8504
vn 0.0000 0.5261 -0.8504
vn 0.8222 -0.0673 -0.5652
vn -0.0000 -0.8470 0.5316
vn -0.0000 0.8470 0.5316
vn 0.5022 0.3783 0.7776
vn 0.5022 -0.3783 0.7776
vn -0.3442 0.3526 0.8702
vn -0.3442 -0.3526 0.8702
vn -0.8759 0.0000 0.4824
vn -0.9949 0.0000 -0.1009
vn 0.5195 0.0000 0.8545
vn -0.7992 0.0000 -0.6011
vn 0.8639 -0.0000 -0.5037
vn -0.5809 0.7562 0.3012
vn -0.0015 -0.8472 0.5312
vn -0.9144 0.0000 0.4047
vn 0.9949 0.0000 0.1009
vn -0.0015 0.8472 0.5312
vn -0.8335 -0.0462 -0.5506
vn -0.5809 -0.7562 0.3012
vn 0.4325 0.0000 -0.9017
vn -0.8222 -0.0673 -0.5652
vn -0.5022 0.3783 0.7776
vn -0.5022 -0.3783 0.7776
vn 0.3442 0.3526 0.8702
vn 0.3442 -0.3526 0.8702
vn 0.8759 -0.0000 0.4824
vn -0.9226 0.0000 0.3857
vn 0.0001 -0.9996 0.0284
vn 0.9681 0.0000 -0.2506
vn 0.0001 0.9996 0.0284
vn -1.0000 0.0000 0.0033
vn -0.3797 0.0000 0.9251
vn 0.0033 0.0000 1.0000
vn -0.9697 0.0000 -0.2442
vn 0.6924 0.7037 -0.1593
vn 0.6924 -0.7037 -0.1593
vn 0.8009 0.5969 -0.0474
vn 0.8009 -0.5969 -0.0474
vn 1.0000 0.0000 -0.0033
vn -0.6934 -0.7038 -0.1547
vn -0.6934 0.7038 -0.1547
vn -0.6524 0.7071 0.2727
vn -0.6524 -0.7071 0.2727
vn -0.4182 0.4602 0.7832
vn -0.4182 -0.4602 0.7832
vn -0.7018 0.7124 0.0022
vn -0.7018 -0.7124 0.0022
vn 0.9226 0.0000 0.3857
vn -0.0001 -0.9996 0.0284
vn -0.9681 0.0000 -0.2506
vn -0.0001 0.9996 0.0284
vn 1.0000 0.0000 0.0033
vn 0.3797 0.0000 0.9251
vn -0.0033 0.0000 1.0000
vn 0.9697 0.0000 -0.2442
vn -0.6924 0.7037 -0.1593
vn -0.6924 -0.7037 -0.1593
vn -0.8009 0.5969 -0.0474
vn -0.8009 -0.5969 -0.0474
vn -1.0000 0.0000 -0.0033
vn 0.6934 -0.7038 -0.1547
vn 0.6934 0.7038 -0.1547
vn 0.6524 0.7071 0.2727
vn 0.6524 -0.7071 0.2727
vn 0.4182 0.4602 0.7832
vn 0.4182 -0.4602 0.7832
vn 0.7018 0.7124 0.0022
vn 0.7018 -0.7124 0.0022
usemtl handle
s off
f 36/1/1 4/2/1 15/3/1 16/4/1 37/5/1
f 14/6/2 15/7/2 4/8/2 3/9/2
f 3/10/3 34/11/3 35/12/3 41/13/3 14/14/3
f 35/12/4 34/11/4 7/15/4 5/16/4
f 32/17/5 28/18/5 83/19/5 86/20/5
f 24/21/6 20/22/6 18/23/6 84/24/6
f 23/25/6 24/21/6 84/24/6 82/26/6
f 28/18/5 26/27/5 81/28/5 83/19/5
f 19/29/7 82/30/7 81/31/7 85/32/7
f 82/26/1 84/24/1 83/19/1 81/28/1
f 18/23/3 19/33/3 85/34/3 86/20/3
f 84/24/8 18/23/8 86/20/8 83/19/8
f 20/22/6 25/35/6 19/33/6 18/23/6
f 27/36/5 32/17/5 86/20/5 85/34/5
f 25/37/6 23/38/6 82/30/6 19/29/6
f 26/39/5 27/40/5 85/32/5 81/31/5
f 36/1/1 37/5/1 98/41/1 97/42/1 90/43/1
f 96/44/9 89/45/9 90/46/9 97/47/9
f 89/48/3 96/49/3 121/50/3 117/51/3 116/52/3
f 117/51/10 5/16/10 7/15/10 116/52/10
f 114/53/5 166/54/5 163/55/5 110/56/5
f 106/57/6 164/58/6 100/59/6 102/60/6
f 105/61/6 162/62/6 164/58/6 106/57/6
f 110/56/5 163/55/5 161/63/5 108/64/5
f 101/65/11 165/66/11 161/67/11 162/68/11
f 162/62/1 161/63/1 163/55/1 164/58/1
f 100/59/3 166/54/3 165/69/3 101/70/3
f 164/58/12 163/55/12 166/54/12 100/59/12
f 102/60/6 100/59/6 101/70/6 107/71/6
f 109/72/5 165/69/5 166/54/5 114/53/5
f 107/73/6 101/65/6 162/68/6 105/74/6
f 108/75/5 161/67/5 165/66/5 109/76/5
usemtl metal
f 5/16/6 6/77/6 42/78/6 13/79/6
f 4/2/1 36/1/1 12/80/1 9/81/1
f 28/18/13 32/17/13 29/82/13 30/83/13
f 3/9/14 4/8/14 9/84/14 10/85/14
f 34/11/3 3/10/3 10/86/3 11/87/3
f 33/88/15 40/89/15 8/90/15 7/15/15
f 16/4/1 15/3/1 31/91/1 17/92/1
f 14/14/3 41/13/3 1/93/3 2/94/3
f 15/7/16 14/6/16 2/95/16 31/96/16
f 16/4/17 17/92/17 54/97/17 53/98/17 42/99/17
f 2/94/18 1/93/18 57/100/18 56/101/18 78/102/18 80/103/18
f 13/79/19 42/78/19 53/104/19 52/105/19 55/106/19 58/107/19
f 21/108/5 22/109/5 30/83/5 29/82/5
f 32/17/3 27/36/3 21/110/3 29/82/3
f 26/27/1 28/18/1 30/83/1 22/111/1
f 27/40/20 26/39/20 22/109/20 21/108/20
f 17/92/21 31/91/21 61/112/21 60/113/21 51/114/21 54/97/21
f 34/11/22 11/87/22 33/88/22 7/15/22
f 1/93/23 41/13/23 13/115/23 58/116/23 57/100/23
f 10/85/24 9/84/24 38/117/24 39/118/24
f 11/87/25 10/86/25 39/119/25 33/88/25
f 9/81/26 12/80/26 40/89/26 38/120/26
f 12/80/27 36/1/27 8/90/27 40/89/27
f 41/13/28 35/12/28 5/16/28 13/115/28
f 37/5/29 16/4/29 42/99/29 6/77/29
f 51/121/30 52/105/30 53/104/30 54/122/30
f 55/106/31 56/123/31 57/124/31 58/107/31
f 59/125/32 60/126/32 61/127/32
f 78/102/33 79/128/33 80/103/33
f 31/96/34 2/95/34 80/129/34 79/130/34 59/125/34 61/127/34
f 40/89/13 33/88/13 20/22/13 24/21/13
f 33/88/3 39/119/3 25/35/3 20/22/3
f 38/120/1 40/89/1 24/21/1 23/25/1
f 39/118/20 38/117/20 23/38/20 25/37/20
f 5/16/6 95/131/6 122/132/6 6/77/6
f 90/43/1 91/133/1 94/134/1 36/1/1
f 110/56/35 112/135/35 111/136/35 114/53/35
f 89/45/36 92/137/36 91/138/36 90/46/36
f 116/52/3 93/139/3 92/140/3 89/48/3
f 115/141/37 7/15/37 8/90/37 120/142/37
f 98/41/1 99/143/1 113/144/1 97/42/1
f 96/49/3 88/145/3 87/146/3 121/50/3
f 97/47/38 113/147/38 88/148/38 96/44/38
f 98/41/39 122/149/39 133/150/39 134/151/39 99/143/39
f 88/145/40 160/152/40 158/153/40 136/154/40 137/155/40 87/146/40
f 95/131/41 138/156/41 135/157/41 132/158/41 133/159/41 122/132/41
f 103/160/5 111/136/5 112/135/5 104/161/5
f 114/53/3 111/136/3 103/162/3 109/72/3
f 108/64/1 104/163/1 112/135/1 110/56/1
f 109/76/42 103/160/42 104/161/42 108/75/42
f 99/143/43 134/151/43 131/164/43 140/165/43 141/166/43 113/144/43
f 116/52/44 7/15/44 115/141/44 93/139/44
f 87/146/45 137/155/45 138/167/45 95/168/45 121/50/45
f 92/137/46 119/169/46 118/170/46 91/138/46
f 93/139/25 115/141/25 119/171/25 92/140/25
f 91/133/26 118/172/26 120/142/26 94/134/26
f 94/134/47 120/142/47 8/90/47 36/1/47
f 121/50/28 95/168/28 5/16/28 117/51/28
f 37/5/29 6/77/29 122/149/29 98/41/29
f 131/173/48 134/174/48 133/159/48 132/158/48
f 135/157/49 138/156/49 137/175/49 136/176/49
f 139/177/50 141/178/50 140/179/50
f 158/153/51 160/152/51 159/180/51
f 113/147/52 141/178/52 139/177/52 159/181/52 160/182/52 88/148/52
f 120/142/35 106/57/35 102/60/35 115/141/35
f 115/141/3 102/60/3 107/71/3 119/171/3
f 118/172/1 105/61/1 106/57/1 120/142/1
f 119/169/42 107/73/42 105/74/42 118/170/42
usemtl blades
f 67/183/53 75/184/53 77/185/53 71/186/53
f 78/102/54 56/101/54 44/187/54 64/188/54
f 55/106/55 52/105/55 46/189/55 43/190/55
f 51/114/56 60/113/56 63/191/56 45/192/56
f 62/193/57 65/194/57 75/184/57 67/183/57
f 64/188/3 44/187/3 47/195/3 73/196/3 76/197/3 74/198/3
f 71/186/58 77/185/58 72/199/58 69/200/58
f 47/201/59 48/202/59 49/203/59 50/204/59 68/205/59 69/200/59 72/199/59 73/206/59
f 45/192/1 63/191/1 66/207/1 70/208/1 68/209/1 50/210/1
f 59/125/60 79/130/60 65/194/60 62/193/60
f 51/121/61 45/211/61 46/189/61 52/105/61
f 44/212/62 56/123/62 55/106/62 43/190/62
f 49/213/63 46/189/63 45/211/63 50/214/63
f 43/190/64 48/215/64 47/216/64 44/212/64
f 43/190/65 46/189/65 49/213/65 48/215/65
f 65/217/66 79/128/66 78/102/66 64/188/66
f 63/218/67 60/126/67 59/125/67 62/193/67
f 70/219/68 66/220/68 67/183/68 71/186/68
f 74/198/69 76/197/69 77/221/69 75/222/69
f 68/205/70 70/223/70 71/186/70 69/200/70
f 76/197/71 73/196/71 72/224/71 77/221/71
f 66/220/72 63/218/72 62/193/72 67/183/72
f 64/188/73 74/198/73 75/222/73 65/217/73
f 147/225/74 151/226/74 157/227/74 155/228/74
f 158/153/75 144/229/75 124/230/75 136/154/75
f 135/157/76 123/231/76 126/232/76 132/158/76
f 131/164/77 125/233/77 143/234/77 140/165/77
f 142/235/78 147/225/78 155/228/78 145/236/78
f 144/229/3 154/237/3 156/238/3 153/239/3 127/240/3 124/230/3
f 151/226/79 149/241/79 152/242/79 157/227/79
f 127/243/80 153/244/80 152/242/80 149/241/80 148/245/80 130/246/80 129/247/80 128/248/80
f 125/233/1 130/249/1 148/250/1 150/251/1 146/252/1 143/234/1
f 139/177/81 142/235/81 145/236/81 159/181/81
f 131/173/82 132/158/82 126/232/82 125/253/82
f 124/254/83 123/231/83 135/157/83 136/176/83
f 129/255/84 130/256/84 125/253/84 126/232/84
f 123/231/85 124/254/85 127/257/85 128/258/85
f 123/231/86 128/258/86 129/255/86 126/232/86
f 145/259/87 144/229/87 158/153/87 159/180/87
f 143/260/88 142/235/88 139/177/88 140/179/88
f 150/261/89 151/226/89 147/225/89 146/262/89
f 154/237/90 155/263/90 157/264/90 156/238/90
f 148/245/91 149/241/91 151/226/91 150/265/91
f 156/238/92 157/264/92 152/266/92 153/239/92
f 146/262/93 147/225/93 142/235/93 143/260/93
f 144/229/94 145/259/94 155/263/94 154/237/94
