{
    "asset" : {
        "generator" : "Khronos glTF Blender I/O v1.8.19",
        "version" : "2.0"
    },
    "scene" : 0,
    "scenes" : [
        {
            "name" : "Scene",
            "nodes" : [
                0
            ]
        }
    ],
    "nodes" : [
        {
            "mesh" : 0,
            "name" : "Floor1_MainHallMesh2",
            "translation" : [
                9.999970436096191,
                -5,
                -9
            ]
        }
    ],
    "materials" : [
        {
            "doubleSided" : true,
            "name" : "Floor1_MainHall_Walls",
            "pbrMetallicRoughness" : {
                "baseColorFactor" : [
                    0.8000000715255737,
                    0.2404652237892151,
                    0.06144620478153229,
                    1
                ],
                "metallicFactor" : 0,
                "roughnessFactor" : 0.5
            }
        },
        {
            "doubleSided" : true,
            "name" : "Floor1_MainHall_Floor",
            "pbrMetallicRoughness" : {
                "baseColorFactor" : [
                    0.09592073410749435,
                    0.05996768921613693,
                    0.0242608655244112,
                    1
                ],
                "metallicFactor" : 0,
                "roughnessFactor" : 0.5
            }
        },
        {
            "doubleSided" : true,
            "name" : "Floor1_MainHall_Ceiling",
            "pbrMetallicRoughness" : {
                "baseColorFactor" : [
                    0.025492368265986443,
                    0.8000000715255737,
                    0.04149644821882248,
                    1
                ],
                "metallicFactor" : 0,
                "roughnessFactor" : 0.5
            }
        }
    ],
    "meshes" : [
        {
            "name" : "Mesh_0.005",
            "primitives" : [
                {
                    "attributes" : {
                        "POSITION" : 0,
                        "NORMAL" : 1,
                        "TEXCOORD_0" : 2
                    },
                    "indices" : 3,
                    "material" : 0
                },
                {
                    "attributes" : {
                        "POSITION" : 4,
                        "NORMAL" : 5,
                        "TEXCOORD_0" : 6
                    },
                    "indices" : 7,
                    "material" : 1
                },
                {
                    "attributes" : {
                        "POSITION" : 8,
                        "NORMAL" : 9,
                        "TEXCOORD_0" : 10
                    },
                    "indices" : 11,
                    "material" : 2
                }
            ]
        }
    ],
    "accessors" : [
        {
            "bufferView" : 0,
            "componentType" : 5126,
            "count" : 335,
            "max" : [
                19.5,
                2.5,
                7.926743030548096
            ],
            "min" : [
                -26.042648315429688,
                -9.946791648864746,
                -2
            ],
            "type" : "VEC3"
        },
        {
            "bufferView" : 1,
            "componentType" : 5126,
            "count" : 335,
            "type" : "VEC3"
        },
        {
            "bufferView" : 2,
            "componentType" : 5126,
            "count" : 335,
            "type" : "VEC2"
        },
        {
            "bufferView" : 3,
            "componentType" : 5123,
            "count" : 369,
            "type" : "SCALAR"
        },
        {
            "bufferView" : 4,
            "componentType" : 5126,
            "count" : 93,
            "max" : [
                19.5,
                1.600000023841858,
                7.926743030548096
            ],
            "min" : [
                -26.042648315429688,
                -9.946791648864746,
                -2
            ],
            "type" : "VEC3"
        },
        {
            "bufferView" : 5,
            "componentType" : 5126,
            "count" : 93,
            "type" : "VEC3"
        },
        {
            "bufferView" : 6,
            "componentType" : 5126,
            "count" : 93,
            "type" : "VEC2"
        },
        {
            "bufferView" : 7,
            "componentType" : 5123,
            "count" : 99,
            "type" : "SCALAR"
        },
        {
            "bufferView" : 8,
            "componentType" : 5126,
            "count" : 67,
            "max" : [
                19.5,
                2.5,
                7.926743030548096
            ],
            "min" : [
                -26.042648315429688,
                0.22714829444885254,
                -2
            ],
            "type" : "VEC3"
        },
        {
            "bufferView" : 9,
            "componentType" : 5126,
            "count" : 67,
            "type" : "VEC3"
        },
        {
            "bufferView" : 10,
            "componentType" : 5126,
            "count" : 67,
            "type" : "VEC2"
        },
        {
            "bufferView" : 11,
            "componentType" : 5123,
            "count" : 75,
            "type" : "SCALAR"
        }
    ],
    "bufferViews" : [
        {
            "buffer" : 0,
            "byteLength" : 4020,
            "byteOffset" : 0
        },
        {
            "buffer" : 0,
            "byteLength" : 4020,
            "byteOffset" : 4020
        },
        {
            "buffer" : 0,
            "byteLength" : 2680,
            "byteOffset" : 8040
        },
        {
            "buffer" : 0,
            "byteLength" : 738,
            "byteOffset" : 10720
        },
        {
            "buffer" : 0,
            "byteLength" : 1116,
            "byteOffset" : 11460
        },
        {
            "buffer" : 0,
            "byteLength" : 1116,
            "byteOffset" : 12576
        },
        {
            "buffer" : 0,
            "byteLength" : 744,
            "byteOffset" : 13692
        },
        {
            "buffer" : 0,
            "byteLength" : 198,
            "byteOffset" : 14436
        },
        {
            "buffer" : 0,
            "byteLength" : 804,
            "byteOffset" : 14636
        },
        {
            "buffer" : 0,
            "byteLength" : 804,
            "byteOffset" : 15440
        },
        {
            "buffer" : 0,
            "byteLength" : 536,
            "byteOffset" : 16244
        },
        {
            "buffer" : 0,
            "byteLength" : 150,
            "byteOffset" : 16780
        }
    ],
    "buffers" : [
        {
            "byteLength" : 16932,
            "uri" : "data:application/octet-stream;base64,"
        }
    ]
}
