{
    "asset" : {
        "generator" : "Khronos glTF Blender I/O v1.8.19",
        "version" : "2.0"
    },
    "scene" : 0,
    "scenes" : [
        {
            "name" : "Scene",
            "nodes" : [
                0
            ]
        }
    ],
    "nodes" : [
        {
            "mesh" : 0,
            "name" : "Floor2_BathroomMesh",
            "rotation" : [
                0,
                -0.7071068286895752,
                0,
                0.7071068286895752
            ],
            "translation" : [
                26,
                15,
                17
            ]
        }
    ],
    "materials" : [
        {
            "doubleSided" : true,
            "name" : "Floor2_Bathroom_Walls",
            "pbrMetallicRoughness" : {
                "baseColorFactor" : [
                    0.020314084365963936,
                    0.8000000715255737,
                    0.01839981973171234,
                    1
                ],
                "metallicFactor" : 0,
                "roughnessFactor" : 0.5
            }
        },
        {
            "doubleSided" : true,
            "name" : "Floor2_Bathroom_Ceiling",
            "pbrMetallicRoughness" : {
                "baseColorFactor" : [
                    0.8000000715255737,
                    0.004642954096198082,
                    0.008524594828486443,
                    1
                ],
                "metallicFactor" : 0,
                "roughnessFactor" : 0.5
            }
        },
        {
            "doubleSided" : true,
            "name" : "Floor2_Bathroom_Floors",
            "pbrMetallicRoughness" : {
                "baseColorFactor" : [
                    0.07836562395095825,
                    0.07836562395095825,
                    0.07836562395095825,
                    1
                ],
                "metallicFactor" : 0,
                "roughnessFactor" : 0.5
            }
        }
    ],
    "meshes" : [
        {
            "name" : "Mesh_0.007",
            "primitives" : [
                {
                    "attributes" : {
                        "POSITION" : 0,
                        "NORMAL" : 1,
                        "TEXCOORD_0" : 2
                    },
                    "indices" : 3,
                    "material" : 0
                },
                {
                    "attributes" : {
                        "POSITION" : 4,
                        "NORMAL" : 5,
                        "TEXCOORD_0" : 6
                    },
                    "indices" : 7,
                    "material" : 1
                },
                {
                    "attributes" : {
                        "POSITION" : 8,
                        "NORMAL" : 9,
                        "TEXCOORD_0" : 10
                    },
                    "indices" : 11,
                    "material" : 2
                }
            ]
        }
    ],
    "accessors" : [
        {
            "bufferView" : 0,
            "componentType" : 5126,
            "count" : 36,
            "max" : [
                6,
                3.5,
                9
            ],
            "min" : [
                -6,
                -3.5,
                -8.5
            ],
            "type" : "VEC3"
        },
        {
            "bufferView" : 1,
            "componentType" : 5126,
            "count" : 36,
            "type" : "VEC3"
        },
        {
            "bufferView" : 2,
            "componentType" : 5126,
            "count" : 36,
            "type" : "VEC2"
        },
        {
            "bufferView" : 3,
            "componentType" : 5123,
            "count" : 66,
            "type" : "SCALAR"
        },
        {
            "bufferView" : 4,
            "componentType" : 5126,
            "count" : 8,
            "max" : [
                6,
                3.5,
                9
            ],
            "min" : [
                -6,
                0.6000000238418579,
                -8.5
            ],
            "type" : "VEC3"
        },
        {
            "bufferView" : 5,
            "componentType" : 5126,
            "count" : 8,
            "type" : "VEC3"
        },
        {
            "bufferView" : 6,
            "componentType" : 5126,
            "count" : 8,
            "type" : "VEC2"
        },
        {
            "bufferView" : 7,
            "componentType" : 5123,
            "count" : 12,
            "type" : "SCALAR"
        },
        {
            "bufferView" : 8,
            "componentType" : 5126,
            "count" : 8,
            "max" : [
                6,
                -3.4000000953674316,
                9
            ],
            "min" : [
                -6,
                -3.5,
                -8.5
            ],
            "type" : "VEC3"
        },
        {
            "bufferView" : 9,
            "componentType" : 5126,
            "count" : 8,
            "type" : "VEC3"
        },
        {
            "bufferView" : 10,
            "componentType" : 5126,
            "count" : 8,
            "type" : "VEC2"
        },
        {
            "bufferView" : 11,
            "componentType" : 5123,
            "count" : 12,
            "type" : "SCALAR"
        }
    ],
    "bufferViews" : [
        {
            "buffer" : 0,
            "byteLength" : 432,
            "byteOffset" : 0
        },
        {
            "buffer" : 0,
            "byteLength" : 432,
            "byteOffset" : 432
        },
        {
            "buffer" : 0,
            "byteLength" : 288,
            "byteOffset" : 864
        },
        {
            "buffer" : 0,
            "byteLength" : 132,
            "byteOffset" : 1152
        },
        {
            "buffer" : 0,
            "byteLength" : 96,
            "byteOffset" : 1284
        },
        {
            "buffer" : 0,
            "byteLength" : 96,
            "byteOffset" : 1380
        },
        {
            "buffer" : 0,
            "byteLength" : 64,
            "byteOffset" : 1476
        },
        {
            "buffer" : 0,
            "byteLength" : 24,
            "byteOffset" : 1540
        },
        {
            "buffer" : 0,
            "byteLength" : 96,
            "byteOffset" : 1564
        },
        {
            "buffer" : 0,
            "byteLength" : 96,
            "byteOffset" : 1660
        },
        {
            "buffer" : 0,
            "byteLength" : 64,
            "byteOffset" : 1756
        },
        {
            "buffer" : 0,
            "byteLength" : 24,
            "byteOffset" : 1820
        }
    ],
    "buffers" : [
        {
            "byteLength" : 1844,
            "uri" : "data:application/octet-stream;base64,"
        }
    ]
}
