{
    "asset" : {
        "generator" : "Khronos glTF Blender I/O v1.8.19",
        "version" : "2.0"
    },
    "scene" : 0,
    "scenes" : [
        {
            "name" : "Scene",
            "nodes" : [
                0
            ]
        }
    ],
    "nodes" : [
        {
            "mesh" : 0,
            "name" : "Floor1_KitchenMesh",
            "translation" : [
                0,
                -2,
                -9
            ]
        }
    ],
    "materials" : [
        {
            "doubleSided" : true,
            "name" : "Floor1_Kitchen_Walls",
            "pbrMetallicRoughness" : {
                "baseColorFactor" : [
                    0.8000000715255737,
                    0.4579322338104248,
                    0.037470947951078415,
                    1
                ],
                "metallicFactor" : 0,
                "roughnessFactor" : 0.5
            }
        },
        {
            "doubleSided" : true,
            "name" : "Floor1_Kitchen_Floor",
            "pbrMetallicRoughness" : {
                "baseColorFactor" : [
                    0.2718241512775421,
                    0.8000000715255737,
                    0.7016901969909668,
                    1
                ],
                "metallicFactor" : 0,
                "roughnessFactor" : 0.5
            }
        },
        {
            "doubleSided" : true,
            "name" : "Floor1_Kitchen_Ceiling",
            "pbrMetallicRoughness" : {
                "baseColorFactor" : [
                    0.13740301132202148,
                    0.13740301132202148,
                    0.13740301132202148,
                    1
                ],
                "metallicFactor" : 0,
                "roughnessFactor" : 0.5
            }
        }
    ],
    "meshes" : [
        {
            "name" : "Mesh_0.004",
            "primitives" : [
                {
                    "attributes" : {
                        "POSITION" : 0,
                        "NORMAL" : 1,
                        "TEXCOORD_0" : 2
                    },
                    "indices" : 3,
                    "material" : 0
                },
                {
                    "attributes" : {
                        "POSITION" : 4,
                        "NORMAL" : 5,
                        "TEXCOORD_0" : 6
                    },
                    "indices" : 7,
                    "material" : 1
                },
                {
                    "attributes" : {
                        "POSITION" : 8,
                        "NORMAL" : 9,
                        "TEXCOORD_0" : 10
                    },
                    "indices" : 11,
                    "material" : 2
                }
            ]
        }
    ],
    "accessors" : [
        {
            "bufferView" : 0,
            "componentType" : 5126,
            "count" : 255,
            "max" : [
                9.5,
                6.5,
                9
            ],
            "min" : [
                -9.5,
                -6.5,
                -9
            ],
            "type" : "VEC3"
        },
        {
            "bufferView" : 1,
            "componentType" : 5126,
            "count" : 255,
            "type" : "VEC3"
        },
        {
            "bufferView" : 2,
            "componentType" : 5126,
            "count" : 255,
            "type" : "VEC2"
        },
        {
            "bufferView" : 3,
            "componentType" : 5123,
            "count" : 264,
            "type" : "SCALAR"
        },
        {
            "bufferView" : 4,
            "componentType" : 5126,
            "count" : 4,
            "max" : [
                9.5,
                -6.5,
                8.5
            ],
            "min" : [
                -9.5,
                -6.5,
                -8.5
            ],
            "type" : "VEC3"
        },
        {
            "bufferView" : 5,
            "componentType" : 5126,
            "count" : 4,
            "type" : "VEC3"
        },
        {
            "bufferView" : 6,
            "componentType" : 5126,
            "count" : 4,
            "type" : "VEC2"
        },
        {
            "bufferView" : 7,
            "componentType" : 5123,
            "count" : 6,
            "type" : "SCALAR"
        },
        {
            "bufferView" : 8,
            "componentType" : 5126,
            "count" : 4,
            "max" : [
                9.5,
                6.5,
                8.5
            ],
            "min" : [
                -9.5,
                6.5,
                -8.5
            ],
            "type" : "VEC3"
        },
        {
            "bufferView" : 9,
            "componentType" : 5126,
            "count" : 4,
            "type" : "VEC3"
        },
        {
            "bufferView" : 10,
            "componentType" : 5126,
            "count" : 4,
            "type" : "VEC2"
        },
        {
            "bufferView" : 11,
            "componentType" : 5123,
            "count" : 6,
            "type" : "SCALAR"
        }
    ],
    "bufferViews" : [
        {
            "buffer" : 0,
            "byteLength" : 3060,
            "byteOffset" : 0
        },
        {
            "buffer" : 0,
            "byteLength" : 3060,
            "byteOffset" : 3060
        },
        {
            "buffer" : 0,
            "byteLength" : 2040,
            "byteOffset" : 6120
        },
        {
            "buffer" : 0,
            "byteLength" : 528,
            "byteOffset" : 8160
        },
        {
            "buffer" : 0,
            "byteLength" : 48,
            "byteOffset" : 8688
        },
        {
            "buffer" : 0,
            "byteLength" : 48,
            "byteOffset" : 8736
        },
        {
            "buffer" : 0,
            "byteLength" : 32,
            "byteOffset" : 8784
        },
        {
            "buffer" : 0,
            "byteLength" : 12,
            "byteOffset" : 8816
        },
        {
            "buffer" : 0,
            "byteLength" : 48,
            "byteOffset" : 8828
        },
        {
            "buffer" : 0,
            "byteLength" : 48,
            "byteOffset" : 8876
        },
        {
            "buffer" : 0,
            "byteLength" : 32,
            "byteOffset" : 8924
        },
        {
            "buffer" : 0,
            "byteLength" : 12,
            "byteOffset" : 8956
        }
    ],
    "buffers" : [
        {
            "byteLength" : 8968,
            "uri" : "data:application/octet-stream;base64,"
        }
    ]
}
