{
    "asset" : {
        "generator" : "Khronos glTF Blender I/O v1.8.19",
        "version" : "2.0"
    },
    "scene" : 0,
    "scenes" : [
        {
            "name" : "Scene",
            "nodes" : [
                0
            ]
        }
    ],
    "nodes" : [
        {
            "mesh" : 0,
            "name" : "Floor2_MainHallMesh",
            "rotation" : [
                0,
                -0.7071068286895752,
                0,
                0.7071068286895752
            ],
            "translation" : [
                15,
                14,
                5.5
            ]
        }
    ],
    "materials" : [
        {
            "doubleSided" : true,
            "name" : "Floor2_MainHall_Walls",
            "pbrMetallicRoughness" : {
                "baseColorFactor" : [
                    0.8000000715255737,
                    0.23252640664577484,
                    0.0034698673989623785,
                    1
                ],
                "metallicFactor" : 0,
                "roughnessFactor" : 0.5
            }
        },
        {
            "doubleSided" : true,
            "name" : "Floor2_MainHall_Ceiling",
            "pbrMetallicRoughness" : {
                "baseColorFactor" : [
                    0.8000000715255737,
                    0.013523354195058346,
                    0.0017953187925741076,
                    1
                ],
                "metallicFactor" : 0,
                "roughnessFactor" : 0.5
            }
        },
        {
            "doubleSided" : true,
            "name" : "Floor2_MainHall_Floor",
            "pbrMetallicRoughness" : {
                "baseColorFactor" : [
                    0.03759985417127609,
                    0.03759985417127609,
                    0.03759985417127609,
                    1
                ],
                "metallicFactor" : 0,
                "roughnessFactor" : 0.5
            }
        }
    ],
    "meshes" : [
        {
            "name" : "Mesh_0.011",
            "primitives" : [
                {
                    "attributes" : {
                        "POSITION" : 0,
                        "NORMAL" : 1,
                        "TEXCOORD_0" : 2
                    },
                    "indices" : 3,
                    "material" : 0
                },
                {
                    "attributes" : {
                        "POSITION" : 4,
                        "NORMAL" : 5,
                        "TEXCOORD_0" : 6
                    },
                    "indices" : 7,
                    "material" : 1
                },
                {
                    "attributes" : {
                        "POSITION" : 8,
                        "NORMAL" : 9,
                        "TEXCOORD_0" : 10
                    },
                    "indices" : 11,
                    "material" : 2
                }
            ]
        }
    ],
    "accessors" : [
        {
            "bufferView" : 0,
            "componentType" : 5126,
            "count" : 118,
            "max" : [
                19,
                2.5,
                2
            ],
            "min" : [
                -18.5,
                -2.5,
                -2
            ],
            "type" : "VEC3"
        },
        {
            "bufferView" : 1,
            "componentType" : 5126,
            "count" : 118,
            "type" : "VEC3"
        },
        {
            "bufferView" : 2,
            "componentType" : 5126,
            "count" : 118,
            "type" : "VEC2"
        },
        {
            "bufferView" : 3,
            "componentType" : 5123,
            "count" : 219,
            "type" : "SCALAR"
        },
        {
            "bufferView" : 4,
            "componentType" : 5126,
            "count" : 28,
            "max" : [
                19,
                2.5,
                2
            ],
            "min" : [
                -18.5,
                1.5999970436096191,
                -2
            ],
            "type" : "VEC3"
        },
        {
            "bufferView" : 5,
            "componentType" : 5126,
            "count" : 28,
            "type" : "VEC3"
        },
        {
            "bufferView" : 6,
            "componentType" : 5126,
            "count" : 28,
            "type" : "VEC2"
        },
        {
            "bufferView" : 7,
            "componentType" : 5123,
            "count" : 42,
            "type" : "SCALAR"
        },
        {
            "bufferView" : 8,
            "componentType" : 5126,
            "count" : 32,
            "max" : [
                19,
                -2.4000020027160645,
                2
            ],
            "min" : [
                -18.5,
                -2.5,
                -2
            ],
            "type" : "VEC3"
        },
        {
            "bufferView" : 9,
            "componentType" : 5126,
            "count" : 32,
            "type" : "VEC3"
        },
        {
            "bufferView" : 10,
            "componentType" : 5126,
            "count" : 32,
            "type" : "VEC2"
        },
        {
            "bufferView" : 11,
            "componentType" : 5123,
            "count" : 54,
            "type" : "SCALAR"
        }
    ],
    "bufferViews" : [
        {
            "buffer" : 0,
            "byteLength" : 1416,
            "byteOffset" : 0
        },
        {
            "buffer" : 0,
            "byteLength" : 1416,
            "byteOffset" : 1416
        },
        {
            "buffer" : 0,
            "byteLength" : 944,
            "byteOffset" : 2832
        },
        {
            "buffer" : 0,
            "byteLength" : 438,
            "byteOffset" : 3776
        },
        {
            "buffer" : 0,
            "byteLength" : 336,
            "byteOffset" : 4216
        },
        {
            "buffer" : 0,
            "byteLength" : 336,
            "byteOffset" : 4552
        },
        {
            "buffer" : 0,
            "byteLength" : 224,
            "byteOffset" : 4888
        },
        {
            "buffer" : 0,
            "byteLength" : 84,
            "byteOffset" : 5112
        },
        {
            "buffer" : 0,
            "byteLength" : 384,
            "byteOffset" : 5196
        },
        {
            "buffer" : 0,
            "byteLength" : 384,
            "byteOffset" : 5580
        },
        {
            "buffer" : 0,
            "byteLength" : 256,
            "byteOffset" : 5964
        },
        {
            "buffer" : 0,
            "byteLength" : 108,
            "byteOffset" : 6220
        }
    ],
    "buffers" : [
        {
            "byteLength" : 6328,
            "uri" : "data:application/octet-stream;base64,"
        }
    ]
}
