{
    "asset" : {
        "generator" : "Khronos glTF Blender I/O v1.8.19",
        "version" : "2.0"
    },
    "scene" : 0,
    "scenes" : [
        {
            "name" : "Scene",
            "nodes" : [
                0
            ]
        }
    ],
    "nodes" : [
        {
            "mesh" : 0,
            "name" : "Floor1_BedroomMatthewMesh"
        }
    ],
    "materials" : [
        {
            "doubleSided" : true,
            "name" : "Floor1_BedroomMatthew_Floor",
            "pbrMetallicRoughness" : {
                "baseColorFactor" : [
                    0.08688510954380035,
                    0.08688510954380035,
                    0.08688510954380035,
                    1
                ],
                "metallicFactor" : 0,
                "roughnessFactor" : 0.5
            }
        },
        {
            "doubleSided" : true,
            "name" : "Floor1_BedroomMatthew_Wall",
            "pbrMetallicRoughness" : {
                "baseColorFactor" : [
                    0.8000000715255737,
                    0.3055954575538635,
                    0.004512543324381113,
                    1
                ],
                "metallicFactor" : 0,
                "roughnessFactor" : 0.5
            }
        },
        {
            "doubleSided" : true,
            "name" : "Floor1_BedroomMatthew_Ceiling",
            "pbrMetallicRoughness" : {
                "baseColorFactor" : [
                    0.8000000715255737,
                    0.003203182714059949,
                    0.03449513018131256,
                    1
                ],
                "metallicFactor" : 0,
                "roughnessFactor" : 0.5
            }
        }
    ],
    "meshes" : [
        {
            "name" : "Mesh_0.002",
            "primitives" : [
                {
                    "attributes" : {
                        "POSITION" : 0,
                        "NORMAL" : 1,
                        "TEXCOORD_0" : 2
                    },
                    "indices" : 3,
                    "material" : 0
                },
                {
                    "attributes" : {
                        "POSITION" : 4,
                        "NORMAL" : 5,
                        "TEXCOORD_0" : 6
                    },
                    "indices" : 7,
                    "material" : 1
                },
                {
                    "attributes" : {
                        "POSITION" : 8,
                        "NORMAL" : 9,
                        "TEXCOORD_0" : 10
                    },
                    "indices" : 11,
                    "material" : 2
                }
            ]
        }
    ],
    "accessors" : [
        {
            "bufferView" : 0,
            "componentType" : 5126,
            "count" : 13,
            "max" : [
                4,
                -2.4000000953674316,
                6.5
            ],
            "min" : [
                -4,
                -2.5,
                -7
            ],
            "type" : "VEC3"
        },
        {
            "bufferView" : 1,
            "componentType" : 5126,
            "count" : 13,
            "type" : "VEC3"
        },
        {
            "bufferView" : 2,
            "componentType" : 5126,
            "count" : 13,
            "type" : "VEC2"
        },
        {
            "bufferView" : 3,
            "componentType" : 5123,
            "count" : 21,
            "type" : "SCALAR"
        },
        {
            "bufferView" : 4,
            "componentType" : 5126,
            "count" : 29,
            "max" : [
                4,
                2.5,
                6.5
            ],
            "min" : [
                -4,
                -2.5,
                -7
            ],
            "type" : "VEC3"
        },
        {
            "bufferView" : 5,
            "componentType" : 5126,
            "count" : 29,
            "type" : "VEC3"
        },
        {
            "bufferView" : 6,
            "componentType" : 5126,
            "count" : 29,
            "type" : "VEC2"
        },
        {
            "bufferView" : 7,
            "componentType" : 5123,
            "count" : 51,
            "type" : "SCALAR"
        },
        {
            "bufferView" : 8,
            "componentType" : 5126,
            "count" : 8,
            "max" : [
                4,
                2.5,
                6.5
            ],
            "min" : [
                -4,
                1.600000023841858,
                -7
            ],
            "type" : "VEC3"
        },
        {
            "bufferView" : 9,
            "componentType" : 5126,
            "count" : 8,
            "type" : "VEC3"
        },
        {
            "bufferView" : 10,
            "componentType" : 5126,
            "count" : 8,
            "type" : "VEC2"
        },
        {
            "bufferView" : 11,
            "componentType" : 5123,
            "count" : 12,
            "type" : "SCALAR"
        }
    ],
    "bufferViews" : [
        {
            "buffer" : 0,
            "byteLength" : 156,
            "byteOffset" : 0
        },
        {
            "buffer" : 0,
            "byteLength" : 156,
            "byteOffset" : 156
        },
        {
            "buffer" : 0,
            "byteLength" : 104,
            "byteOffset" : 312
        },
        {
            "buffer" : 0,
            "byteLength" : 42,
            "byteOffset" : 416
        },
        {
            "buffer" : 0,
            "byteLength" : 348,
            "byteOffset" : 460
        },
        {
            "buffer" : 0,
            "byteLength" : 348,
            "byteOffset" : 808
        },
        {
            "buffer" : 0,
            "byteLength" : 232,
            "byteOffset" : 1156
        },
        {
            "buffer" : 0,
            "byteLength" : 102,
            "byteOffset" : 1388
        },
        {
            "buffer" : 0,
            "byteLength" : 96,
            "byteOffset" : 1492
        },
        {
            "buffer" : 0,
            "byteLength" : 96,
            "byteOffset" : 1588
        },
        {
            "buffer" : 0,
            "byteLength" : 64,
            "byteOffset" : 1684
        },
        {
            "buffer" : 0,
            "byteLength" : 24,
            "byteOffset" : 1748
        }
    ],
    "buffers" : [
        {
            "byteLength" : 1772,
            "uri" : "data:application/octet-stream;base64,"
        }
    ]
}
