{
    "asset" : {
        "generator" : "Khronos glTF Blender I/O v1.8.19",
        "version" : "2.0"
    },
    "scene" : 0,
    "scenes" : [
        {
            "name" : "Scene",
            "nodes" : [
                0
            ]
        }
    ],
    "nodes" : [
        {
            "mesh" : 0,
            "name" : "Floor2_LivingAreaExerciseMesh2",
            "rotation" : [
                0,
                0.7071068286895752,
                0,
                0.7071068286895752
            ],
            "translation" : [
                4,
                15,
                14
            ]
        }
    ],
    "materials" : [
        {
            "doubleSided" : true,
            "name" : "Floor2_LivingAreaExercise_Walls",
            "pbrMetallicRoughness" : {
                "baseColorFactor" : [
                    0.08497346192598343,
                    0.8000000715255737,
                    0.010566050186753273,
                    1
                ],
                "metallicFactor" : 0,
                "roughnessFactor" : 0.5
            }
        },
        {
            "doubleSided" : true,
            "name" : "Floor2_LivingAreaExercise_Ceiling",
            "pbrMetallicRoughness" : {
                "baseColorFactor" : [
                    0.8000000715255737,
                    0.012695925310254097,
                    0.004480318166315556,
                    1
                ],
                "metallicFactor" : 0,
                "roughnessFactor" : 0.5
            }
        },
        {
            "doubleSided" : true,
            "name" : "Floor2_LivingAreaExercise_Floor",
            "pbrMetallicRoughness" : {
                "baseColorFactor" : [
                    0.09592034667730331,
                    0.09592034667730331,
                    0.09592034667730331,
                    1
                ],
                "metallicFactor" : 0,
                "roughnessFactor" : 0.5
            }
        }
    ],
    "meshes" : [
        {
            "name" : "Mesh_0.010",
            "primitives" : [
                {
                    "attributes" : {
                        "POSITION" : 0,
                        "NORMAL" : 1,
                        "TEXCOORD_0" : 2
                    },
                    "indices" : 3,
                    "material" : 0
                },
                {
                    "attributes" : {
                        "POSITION" : 4,
                        "NORMAL" : 5,
                        "TEXCOORD_0" : 6
                    },
                    "indices" : 7,
                    "material" : 1
                },
                {
                    "attributes" : {
                        "POSITION" : 8,
                        "NORMAL" : 9,
                        "TEXCOORD_0" : 10
                    },
                    "indices" : 11,
                    "material" : 2
                }
            ]
        }
    ],
    "accessors" : [
        {
            "bufferView" : 0,
            "componentType" : 5126,
            "count" : 32,
            "max" : [
                6,
                3.5,
                9
            ],
            "min" : [
                -6,
                -3.5,
                -8.5
            ],
            "type" : "VEC3"
        },
        {
            "bufferView" : 1,
            "componentType" : 5126,
            "count" : 32,
            "type" : "VEC3"
        },
        {
            "bufferView" : 2,
            "componentType" : 5126,
            "count" : 32,
            "type" : "VEC2"
        },
        {
            "bufferView" : 3,
            "componentType" : 5123,
            "count" : 54,
            "type" : "SCALAR"
        },
        {
            "bufferView" : 4,
            "componentType" : 5126,
            "count" : 8,
            "max" : [
                6,
                3.5,
                9
            ],
            "min" : [
                -6,
                0.6000000238418579,
                -8.5
            ],
            "type" : "VEC3"
        },
        {
            "bufferView" : 5,
            "componentType" : 5126,
            "count" : 8,
            "type" : "VEC3"
        },
        {
            "bufferView" : 6,
            "componentType" : 5126,
            "count" : 8,
            "type" : "VEC2"
        },
        {
            "bufferView" : 7,
            "componentType" : 5123,
            "count" : 12,
            "type" : "SCALAR"
        },
        {
            "bufferView" : 8,
            "componentType" : 5126,
            "count" : 8,
            "max" : [
                6,
                -3.4000000953674316,
                9
            ],
            "min" : [
                -6,
                -3.5,
                -8.5
            ],
            "type" : "VEC3"
        },
        {
            "bufferView" : 9,
            "componentType" : 5126,
            "count" : 8,
            "type" : "VEC3"
        },
        {
            "bufferView" : 10,
            "componentType" : 5126,
            "count" : 8,
            "type" : "VEC2"
        },
        {
            "bufferView" : 11,
            "componentType" : 5123,
            "count" : 12,
            "type" : "SCALAR"
        }
    ],
    "bufferViews" : [
        {
            "buffer" : 0,
            "byteLength" : 384,
            "byteOffset" : 0
        },
        {
            "buffer" : 0,
            "byteLength" : 384,
            "byteOffset" : 384
        },
        {
            "buffer" : 0,
            "byteLength" : 256,
            "byteOffset" : 768
        },
        {
            "buffer" : 0,
            "byteLength" : 108,
            "byteOffset" : 1024
        },
        {
            "buffer" : 0,
            "byteLength" : 96,
            "byteOffset" : 1132
        },
        {
            "buffer" : 0,
            "byteLength" : 96,
            "byteOffset" : 1228
        },
        {
            "buffer" : 0,
            "byteLength" : 64,
            "byteOffset" : 1324
        },
        {
            "buffer" : 0,
            "byteLength" : 24,
            "byteOffset" : 1388
        },
        {
            "buffer" : 0,
            "byteLength" : 96,
            "byteOffset" : 1412
        },
        {
            "buffer" : 0,
            "byteLength" : 96,
            "byteOffset" : 1508
        },
        {
            "buffer" : 0,
            "byteLength" : 64,
            "byteOffset" : 1604
        },
        {
            "buffer" : 0,
            "byteLength" : 24,
            "byteOffset" : 1668
        }
    ],
    "buffers" : [
        {
            "byteLength" : 1692,
            "uri" : "data:application/octet-stream;base64,"
        }
    ]
}
