{
    "asset" : {
        "generator" : "Khronos glTF Blender I/O v1.8.19",
        "version" : "2.0"
    },
    "scene" : 0,
    "scenes" : [
        {
            "name" : "Scene",
            "nodes" : [
                2
            ]
        }
    ],
    "nodes" : [
        {
            "mesh" : 0,
            "name" : "Desk"
        },
        {
            "mesh" : 1,
            "name" : "Rubble"
        },
        {
            "children" : [
                0,
                1
            ],
            "mesh" : 2,
            "name" : "Floor1_EntranceMesh",
            "translation" : [
                0,
                -21,
                -7
            ]
        }
    ],
    "materials" : [
        {
            "doubleSided" : true,
            "name" : "Floor1_Entrance_DeskMaterial",
            "pbrMetallicRoughness" : {
                "baseColorFactor" : [
                    0.8000000715255737,
                    0.4462273120880127,
                    0.1460786908864975,
                    1
                ],
                "metallicFactor" : 0,
                "roughnessFactor" : 0.5
            }
        },
        {
            "doubleSided" : true,
            "name" : "RubbleMaterial",
            "pbrMetallicRoughness" : {
                "baseColorFactor" : [
                    0.07836640626192093,
                    0.07836640626192093,
                    0.07836640626192093,
                    1
                ],
                "metallicFactor" : 0,
                "roughnessFactor" : 0.5
            }
        },
        {
            "doubleSided" : true,
            "name" : "Floor1_Entrance_WallMaterial",
            "pbrMetallicRoughness" : {
                "baseColorFactor" : [
                    0.8000000715255737,
                    0.6339421272277832,
                    0.1676425188779831,
                    1
                ],
                "metallicFactor" : 0,
                "roughnessFactor" : 0.5
            }
        }
    ],
    "meshes" : [
        {
            "name" : "Mesh_0.038",
            "primitives" : [
                {
                    "attributes" : {
                        "POSITION" : 0,
                        "NORMAL" : 1,
                        "TEXCOORD_0" : 2
                    },
                    "indices" : 3,
                    "material" : 0
                }
            ]
        },
        {
            "name" : "Mesh_0.003",
            "primitives" : [
                {
                    "attributes" : {
                        "POSITION" : 4,
                        "NORMAL" : 5,
                        "TEXCOORD_0" : 6
                    },
                    "indices" : 7,
                    "material" : 1
                }
            ]
        },
        {
            "name" : "Mesh_0.042",
            "primitives" : [
                {
                    "attributes" : {
                        "POSITION" : 8,
                        "NORMAL" : 9,
                        "TEXCOORD_0" : 10
                    },
                    "indices" : 11,
                    "material" : 2
                }
            ]
        }
    ],
    "accessors" : [
        {
            "bufferView" : 0,
            "componentType" : 5126,
            "count" : 241,
            "max" : [
                9.535343170166016,
                -2.319589138031006,
                3.5714125633239746
            ],
            "min" : [
                0.9021720886230469,
                -4.447269439697266,
                -5.352630615234375
            ],
            "type" : "VEC3"
        },
        {
            "bufferView" : 1,
            "componentType" : 5126,
            "count" : 241,
            "type" : "VEC3"
        },
        {
            "bufferView" : 2,
            "componentType" : 5126,
            "count" : 241,
            "type" : "VEC2"
        },
        {
            "bufferView" : 3,
            "componentType" : 5123,
            "count" : 324,
            "type" : "SCALAR"
        },
        {
            "bufferView" : 4,
            "componentType" : 5126,
            "count" : 19396,
            "max" : [
                -3.138383626937866,
                2.2387144565582275,
                10.422289848327637
            ],
            "min" : [
                -11.016863822937012,
                -6.106258869171143,
                2.295095205307007
            ],
            "type" : "VEC3"
        },
        {
            "bufferView" : 5,
            "componentType" : 5126,
            "count" : 19396,
            "type" : "VEC3"
        },
        {
            "bufferView" : 6,
            "componentType" : 5126,
            "count" : 19396,
            "type" : "VEC2"
        },
        {
            "bufferView" : 7,
            "componentType" : 5123,
            "count" : 19398,
            "type" : "SCALAR"
        },
        {
            "bufferView" : 8,
            "componentType" : 5126,
            "count" : 1200,
            "max" : [
                10,
                4.5,
                10
            ],
            "min" : [
                -9.5,
                -6,
                -9.5
            ],
            "type" : "VEC3"
        },
        {
            "bufferView" : 9,
            "componentType" : 5126,
            "count" : 1200,
            "type" : "VEC3"
        },
        {
            "bufferView" : 10,
            "componentType" : 5126,
            "count" : 1200,
            "type" : "VEC2"
        },
        {
            "bufferView" : 11,
            "componentType" : 5123,
            "count" : 2010,
            "type" : "SCALAR"
        }
    ],
    "bufferViews" : [
        {
            "buffer" : 0,
            "byteLength" : 2892,
            "byteOffset" : 0
        },
        {
            "buffer" : 0,
            "byteLength" : 2892,
            "byteOffset" : 2892
        },
        {
            "buffer" : 0,
            "byteLength" : 1928,
            "byteOffset" : 5784
        },
        {
            "buffer" : 0,
            "byteLength" : 648,
            "byteOffset" : 7712
        },
        {
            "buffer" : 0,
            "byteLength" : 232752,
            "byteOffset" : 8360
        },
        {
            "buffer" : 0,
            "byteLength" : 232752,
            "byteOffset" : 241112
        },
        {
            "buffer" : 0,
            "byteLength" : 155168,
            "byteOffset" : 473864
        },
        {
            "buffer" : 0,
            "byteLength" : 38796,
            "byteOffset" : 629032
        },
        {
            "buffer" : 0,
            "byteLength" : 14400,
            "byteOffset" : 667828
        },
        {
            "buffer" : 0,
            "byteLength" : 14400,
            "byteOffset" : 682228
        },
        {
            "buffer" : 0,
            "byteLength" : 9600,
            "byteOffset" : 696628
        },
        {
            "buffer" : 0,
            "byteLength" : 4020,
            "byteOffset" : 706228
        }
    ],
    "buffers" : [
        {
            "byteLength" : 710248,
            "uri" : "data:application/octet-stream;base64,"
        }
    ]
}
