{
    "asset" : {
        "generator" : "Khronos glTF Blender I/O v1.8.19",
        "version" : "2.0"
    },
    "scene" : 0,
    "scenes" : [
        {
            "name" : "Scene",
            "nodes" : [
                0
            ]
        }
    ],
    "nodes" : [
        {
            "mesh" : 0,
            "name" : "Nursery_BedroomMesh2",
            "rotation" : [
                0,
                -0.7071068286895752,
                0,
                0.7071068286895752
            ],
            "translation" : [
                9,
                9.5,
                9.5
            ]
        }
    ],
    "materials" : [
        {
            "doubleSided" : true,
            "name" : "Nursery_Bedroom_Walls",
            "pbrMetallicRoughness" : {
                "baseColorFactor" : [
                    0,
                    0.8000000715255737,
                    0.008368478156626225,
                    1
                ],
                "metallicFactor" : 0,
                "roughnessFactor" : 0.5
            }
        },
        {
            "doubleSided" : true,
            "name" : "Nursery_Bedroom_Ceiling",
            "pbrMetallicRoughness" : {
                "baseColorFactor" : [
                    0.8000000715255737,
                    0,
                    0.006816523149609566,
                    1
                ],
                "metallicFactor" : 0,
                "roughnessFactor" : 0.5
            }
        },
        {
            "doubleSided" : true,
            "name" : "Nursery_Bedroom_Floor",
            "pbrMetallicRoughness" : {
                "baseColorFactor" : [
                    0.03081667236983776,
                    0.03081667236983776,
                    0.03081667236983776,
                    1
                ],
                "metallicFactor" : 0,
                "roughnessFactor" : 0.5
            }
        }
    ],
    "meshes" : [
        {
            "name" : "Mesh_0.012",
            "primitives" : [
                {
                    "attributes" : {
                        "POSITION" : 0,
                        "NORMAL" : 1,
                        "TEXCOORD_0" : 2
                    },
                    "indices" : 3,
                    "material" : 0
                },
                {
                    "attributes" : {
                        "POSITION" : 4,
                        "NORMAL" : 5,
                        "TEXCOORD_0" : 6
                    },
                    "indices" : 7,
                    "material" : 1
                },
                {
                    "attributes" : {
                        "POSITION" : 8,
                        "NORMAL" : 9,
                        "TEXCOORD_0" : 10
                    },
                    "indices" : 11,
                    "material" : 2
                }
            ]
        }
    ],
    "accessors" : [
        {
            "bufferView" : 0,
            "componentType" : 5126,
            "count" : 29,
            "max" : [
                12.5,
                3.5,
                9
            ],
            "min" : [
                -12.5,
                -3.5,
                -8.5
            ],
            "type" : "VEC3"
        },
        {
            "bufferView" : 1,
            "componentType" : 5126,
            "count" : 29,
            "type" : "VEC3"
        },
        {
            "bufferView" : 2,
            "componentType" : 5126,
            "count" : 29,
            "type" : "VEC2"
        },
        {
            "bufferView" : 3,
            "componentType" : 5123,
            "count" : 57,
            "type" : "SCALAR"
        },
        {
            "bufferView" : 4,
            "componentType" : 5126,
            "count" : 8,
            "max" : [
                12.5,
                3.5,
                9
            ],
            "min" : [
                -12.5,
                0.6000000238418579,
                -8.5
            ],
            "type" : "VEC3"
        },
        {
            "bufferView" : 5,
            "componentType" : 5126,
            "count" : 8,
            "type" : "VEC3"
        },
        {
            "bufferView" : 6,
            "componentType" : 5126,
            "count" : 8,
            "type" : "VEC2"
        },
        {
            "bufferView" : 7,
            "componentType" : 5123,
            "count" : 12,
            "type" : "SCALAR"
        },
        {
            "bufferView" : 8,
            "componentType" : 5126,
            "count" : 9,
            "max" : [
                12.5,
                -3.4000000953674316,
                9
            ],
            "min" : [
                -12.5,
                -3.5,
                -8.5
            ],
            "type" : "VEC3"
        },
        {
            "bufferView" : 9,
            "componentType" : 5126,
            "count" : 9,
            "type" : "VEC3"
        },
        {
            "bufferView" : 10,
            "componentType" : 5126,
            "count" : 9,
            "type" : "VEC2"
        },
        {
            "bufferView" : 11,
            "componentType" : 5123,
            "count" : 15,
            "type" : "SCALAR"
        }
    ],
    "bufferViews" : [
        {
            "buffer" : 0,
            "byteLength" : 348,
            "byteOffset" : 0
        },
        {
            "buffer" : 0,
            "byteLength" : 348,
            "byteOffset" : 348
        },
        {
            "buffer" : 0,
            "byteLength" : 232,
            "byteOffset" : 696
        },
        {
            "buffer" : 0,
            "byteLength" : 114,
            "byteOffset" : 928
        },
        {
            "buffer" : 0,
            "byteLength" : 96,
            "byteOffset" : 1044
        },
        {
            "buffer" : 0,
            "byteLength" : 96,
            "byteOffset" : 1140
        },
        {
            "buffer" : 0,
            "byteLength" : 64,
            "byteOffset" : 1236
        },
        {
            "buffer" : 0,
            "byteLength" : 24,
            "byteOffset" : 1300
        },
        {
            "buffer" : 0,
            "byteLength" : 108,
            "byteOffset" : 1324
        },
        {
            "buffer" : 0,
            "byteLength" : 108,
            "byteOffset" : 1432
        },
        {
            "buffer" : 0,
            "byteLength" : 72,
            "byteOffset" : 1540
        },
        {
            "buffer" : 0,
            "byteLength" : 30,
            "byteOffset" : 1612
        }
    ],
    "buffers" : [
        {
            "byteLength" : 1644,
            "uri" : "data:application/octet-stream;base64,"
        }
    ]
}
