{
    "asset" : {
        "generator" : "Khronos glTF Blender I/O v1.8.19",
        "version" : "2.0"
    },
    "scene" : 0,
    "scenes" : [
        {
            "name" : "Scene",
            "nodes" : [
                0
            ]
        }
    ],
    "nodes" : [
        {
            "mesh" : 0,
            "name" : "Nursery_MainHallMesh2",
            "rotation" : [
                0,
                -0.7071068286895752,
                0,
                0.7071068286895752
            ],
            "translation" : [
                -2.000030040740967,
                8.5,
                11.5
            ]
        }
    ],
    "materials" : [
        {
            "doubleSided" : true,
            "name" : "Nursery_MainHall_Walls",
            "pbrMetallicRoughness" : {
                "baseColorFactor" : [
                    0.0039249989204108715,
                    0.8000000715255737,
                    0.013272358104586601,
                    1
                ],
                "metallicFactor" : 0,
                "roughnessFactor" : 0.5
            }
        },
        {
            "doubleSided" : true,
            "name" : "Nursery_MainHall_Ceiling",
            "pbrMetallicRoughness" : {
                "baseColorFactor" : [
                    0.8000000715255737,
                    0.003964363131672144,
                    0,
                    1
                ],
                "metallicFactor" : 0,
                "roughnessFactor" : 0.5
            }
        },
        {
            "doubleSided" : true,
            "name" : "Nursery_MainHall_Floor",
            "pbrMetallicRoughness" : {
                "baseColorFactor" : [
                    0.02623828873038292,
                    0.02623828873038292,
                    0.02623828873038292,
                    1
                ],
                "metallicFactor" : 0,
                "roughnessFactor" : 0.5
            }
        }
    ],
    "meshes" : [
        {
            "name" : "Mesh_0.014",
            "primitives" : [
                {
                    "attributes" : {
                        "POSITION" : 0,
                        "NORMAL" : 1,
                        "TEXCOORD_0" : 2
                    },
                    "indices" : 3,
                    "material" : 0
                },
                {
                    "attributes" : {
                        "POSITION" : 4,
                        "NORMAL" : 5,
                        "TEXCOORD_0" : 6
                    },
                    "indices" : 7,
                    "material" : 1
                },
                {
                    "attributes" : {
                        "POSITION" : 8,
                        "NORMAL" : 9,
                        "TEXCOORD_0" : 10
                    },
                    "indices" : 11,
                    "material" : 2
                }
            ]
        }
    ],
    "accessors" : [
        {
            "bufferView" : 0,
            "componentType" : 5126,
            "count" : 105,
            "max" : [
                19,
                2.5,
                2
            ],
            "min" : [
                -19,
                -2.5,
                -2
            ],
            "type" : "VEC3"
        },
        {
            "bufferView" : 1,
            "componentType" : 5126,
            "count" : 105,
            "type" : "VEC3"
        },
        {
            "bufferView" : 2,
            "componentType" : 5126,
            "count" : 105,
            "type" : "VEC2"
        },
        {
            "bufferView" : 3,
            "componentType" : 5123,
            "count" : 198,
            "type" : "SCALAR"
        },
        {
            "bufferView" : 4,
            "componentType" : 5126,
            "count" : 24,
            "max" : [
                19,
                2.5,
                2
            ],
            "min" : [
                -19,
                1.5,
                -2
            ],
            "type" : "VEC3"
        },
        {
            "bufferView" : 5,
            "componentType" : 5126,
            "count" : 24,
            "type" : "VEC3"
        },
        {
            "bufferView" : 6,
            "componentType" : 5126,
            "count" : 24,
            "type" : "VEC2"
        },
        {
            "bufferView" : 7,
            "componentType" : 5123,
            "count" : 36,
            "type" : "SCALAR"
        },
        {
            "bufferView" : 8,
            "componentType" : 5126,
            "count" : 24,
            "max" : [
                19,
                -2.361423969268799,
                2
            ],
            "min" : [
                -19,
                -2.5,
                -2
            ],
            "type" : "VEC3"
        },
        {
            "bufferView" : 9,
            "componentType" : 5126,
            "count" : 24,
            "type" : "VEC3"
        },
        {
            "bufferView" : 10,
            "componentType" : 5126,
            "count" : 24,
            "type" : "VEC2"
        },
        {
            "bufferView" : 11,
            "componentType" : 5123,
            "count" : 36,
            "type" : "SCALAR"
        }
    ],
    "bufferViews" : [
        {
            "buffer" : 0,
            "byteLength" : 1260,
            "byteOffset" : 0
        },
        {
            "buffer" : 0,
            "byteLength" : 1260,
            "byteOffset" : 1260
        },
        {
            "buffer" : 0,
            "byteLength" : 840,
            "byteOffset" : 2520
        },
        {
            "buffer" : 0,
            "byteLength" : 396,
            "byteOffset" : 3360
        },
        {
            "buffer" : 0,
            "byteLength" : 288,
            "byteOffset" : 3756
        },
        {
            "buffer" : 0,
            "byteLength" : 288,
            "byteOffset" : 4044
        },
        {
            "buffer" : 0,
            "byteLength" : 192,
            "byteOffset" : 4332
        },
        {
            "buffer" : 0,
            "byteLength" : 72,
            "byteOffset" : 4524
        },
        {
            "buffer" : 0,
            "byteLength" : 288,
            "byteOffset" : 4596
        },
        {
            "buffer" : 0,
            "byteLength" : 288,
            "byteOffset" : 4884
        },
        {
            "buffer" : 0,
            "byteLength" : 192,
            "byteOffset" : 5172
        },
        {
            "buffer" : 0,
            "byteLength" : 72,
            "byteOffset" : 5364
        }
    ],
    "buffers" : [
        {
            "byteLength" : 5436,
            "uri" : "data:application/octet-stream;base64,"
        }
    ]
}
