{"accessors":[{"bufferView":0,"byteOffset":0,"componentType":5126,"count":336,"max":[30,21.5,46],"min":[-30,-21.5,-46],"normalized":false,"type":"VEC3"},{"bufferView":1,"byteOffset":0,"componentType":5126,"count":336,"max":[0.015998,0,0.015998,1],"min":[-0.999969,-0.999872,-1,-1],"normalized":false,"type":"VEC4"},{"bufferView":2,"byteOffset":0,"componentType":5126,"count":336,"max":[1,1,1],"min":[-1,-1,-1],"normalized":false,"type":"VEC3"},{"bufferView":3,"byteOffset":0,"componentType":5126,"count":336,"max":[1,1],"min":[0,0],"normalized":false,"type":"VEC2"},{"bufferView":4,"byteOffset":0,"componentType":5125,"count":336,"max":[335],"min":[0],"normalized":false,"type":"SCALAR"}],"asset":{"generator":"Godot Engine v3.5.rc3.official@af8a02ddafd64f0195956c74c6a60bf389af278f","version":"2.0"},"bufferViews":[{"buffer":0,"byteLength":4032,"byteOffset":0},{"buffer":0,"byteLength":5376,"byteOffset":4032},{"buffer":0,"byteLength":4032,"byteOffset":9408},{"buffer":0,"byteLength":2688,"byteOffset":13440},{"buffer":0,"byteLength":1344,"byteOffset":16128}],"buffers":[{"byteLength":17472,"uri":"Sanctuary_MainChambersMesh0.bin"}],"extensionsRequired":["KHR_texture_transform"],"extensionsUsed":["KHR_lights_punctual","KHR_texture_transform"],"meshes":[{"extras":{"targetNames":[]},"primitives":[{"attributes":{"NORMAL":2,"POSITION":0,"TANGENT":1,"TEXCOORD_0":3},"indices":4,"mode":4}]}],"nodes":[{"children":[1,2,3],"extensions":{},"mesh":0,"name":"Sanctuary_MainChambersMesh2","translation":[45.5,13,19]},{"extensions":{},"name":"CSGBox2"},{"extensions":{},"name":"OpeningEntrance","translation":[-30,-13,0]},{"extensions":{},"name":"OpeningBedroom","translation":[31,-16,-29.5]}],"scene":0,"scenes":[{"nodes":[0]}]}