{
    "asset" : {
        "generator" : "Khronos glTF Blender I/O v1.8.19",
        "version" : "2.0"
    },
    "scene" : 0,
    "scenes" : [
        {
            "name" : "Scene",
            "nodes" : [
                0,
                1,
                2
            ]
        }
    ],
    "nodes" : [
        {
            "mesh" : 0,
            "name" : "Sanctuary_BedroomMesh2",
            "translation" : [
                91,
                -3,
                -10.5
            ]
        },
        {
            "mesh" : 1,
            "name" : "Sanctuary_EntranceMesh2",
            "translation" : [
                0,
                0,
                19
            ]
        },
        {
            "mesh" : 2,
            "name" : "Sanctuary_MainChambersMesh2",
            "translation" : [
                45.5,
                13,
                19
            ]
        }
    ],
    "materials" : [
        {
            "doubleSided" : true,
            "name" : "Sanctuary_Bedroom_Walls",
            "pbrMetallicRoughness" : {
                "baseColorFactor" : [
                    0,
                    0.8000000715255737,
                    0.02478293515741825,
                    1
                ],
                "metallicFactor" : 0,
                "roughnessFactor" : 0.5
            }
        },
        {
            "doubleSided" : true,
            "name" : "Sanctuary_Bedroom_Ceiling",
            "pbrMetallicRoughness" : {
                "baseColorFactor" : [
                    0.8000000715255737,
                    0,
                    0.005858900491148233,
                    1
                ],
                "metallicFactor" : 0,
                "roughnessFactor" : 0.5
            }
        },
        {
            "doubleSided" : true,
            "name" : "Sanctuary_Bedroom_Floor",
            "pbrMetallicRoughness" : {
                "baseColorFactor" : [
                    0.023422416299581528,
                    0.023422416299581528,
                    0.023422416299581528,
                    1
                ],
                "metallicFactor" : 0,
                "roughnessFactor" : 0.5
            }
        },
        {
            "doubleSided" : true,
            "name" : "Sanctuary_Entrance_Material",
            "pbrMetallicRoughness" : {
                "baseColorFactor" : [
                    0.8000000715255737,
                    0.001943710958585143,
                    0.6338585019111633,
                    1
                ],
                "metallicFactor" : 0,
                "roughnessFactor" : 0.5
            }
        },
        {
            "doubleSided" : true,
            "name" : "Sanctuary_MainChanbers_Material",
            "pbrMetallicRoughness" : {
                "baseColorFactor" : [
                    0.8000000715255737,
                    0,
                    0.7928572297096252,
                    1
                ],
                "metallicFactor" : 0,
                "roughnessFactor" : 0.5
            }
        }
    ],
    "meshes" : [
        {
            "name" : "Mesh_0.017",
            "primitives" : [
                {
                    "attributes" : {
                        "POSITION" : 0,
                        "NORMAL" : 1,
                        "TEXCOORD_0" : 2
                    },
                    "indices" : 3,
                    "material" : 0
                },
                {
                    "attributes" : {
                        "POSITION" : 4,
                        "NORMAL" : 5,
                        "TEXCOORD_0" : 6
                    },
                    "indices" : 7,
                    "material" : 1
                },
                {
                    "attributes" : {
                        "POSITION" : 8,
                        "NORMAL" : 9,
                        "TEXCOORD_0" : 10
                    },
                    "indices" : 11,
                    "material" : 2
                }
            ]
        },
        {
            "name" : "Mesh_0.018",
            "primitives" : [
                {
                    "attributes" : {
                        "POSITION" : 12,
                        "NORMAL" : 13,
                        "TEXCOORD_0" : 14
                    },
                    "indices" : 15,
                    "material" : 3
                }
            ]
        },
        {
            "name" : "Mesh_0.019",
            "primitives" : [
                {
                    "attributes" : {
                        "POSITION" : 16,
                        "NORMAL" : 17,
                        "TEXCOORD_0" : 18
                    },
                    "indices" : 19,
                    "material" : 4
                }
            ]
        }
    ],
    "accessors" : [
        {
            "bufferView" : 0,
            "componentType" : 5126,
            "count" : 40,
            "max" : [
                15,
                5,
                10.5
            ],
            "min" : [
                -15.5,
                -5,
                -10
            ],
            "type" : "VEC3"
        },
        {
            "bufferView" : 1,
            "componentType" : 5126,
            "count" : 40,
            "type" : "VEC3"
        },
        {
            "bufferView" : 2,
            "componentType" : 5126,
            "count" : 40,
            "type" : "VEC2"
        },
        {
            "bufferView" : 3,
            "componentType" : 5123,
            "count" : 60,
            "type" : "SCALAR"
        },
        {
            "bufferView" : 4,
            "componentType" : 5126,
            "count" : 12,
            "max" : [
                15,
                5,
                10.5
            ],
            "min" : [
                -15.5,
                5,
                -10
            ],
            "type" : "VEC3"
        },
        {
            "bufferView" : 5,
            "componentType" : 5126,
            "count" : 12,
            "type" : "VEC3"
        },
        {
            "bufferView" : 6,
            "componentType" : 5126,
            "count" : 12,
            "type" : "VEC2"
        },
        {
            "bufferView" : 7,
            "componentType" : 5123,
            "count" : 30,
            "type" : "SCALAR"
        },
        {
            "bufferView" : 8,
            "componentType" : 5126,
            "count" : 12,
            "max" : [
                15,
                -5,
                10.5
            ],
            "min" : [
                -15.5,
                -5,
                -10
            ],
            "type" : "VEC3"
        },
        {
            "bufferView" : 9,
            "componentType" : 5126,
            "count" : 12,
            "type" : "VEC3"
        },
        {
            "bufferView" : 10,
            "componentType" : 5126,
            "count" : 12,
            "type" : "VEC2"
        },
        {
            "bufferView" : 11,
            "componentType" : 5123,
            "count" : 30,
            "type" : "SCALAR"
        },
        {
            "bufferView" : 12,
            "componentType" : 5126,
            "count" : 5267,
            "max" : [
                15.623842239379883,
                8.452442169189453,
                8.49116039276123
            ],
            "min" : [
                -14.997902870178223,
                -8.413300514221191,
                -8.362712860107422
            ],
            "type" : "VEC3"
        },
        {
            "bufferView" : 13,
            "componentType" : 5126,
            "count" : 5267,
            "type" : "VEC3"
        },
        {
            "bufferView" : 14,
            "componentType" : 5126,
            "count" : 5267,
            "type" : "VEC2"
        },
        {
            "bufferView" : 15,
            "componentType" : 5123,
            "count" : 26469,
            "type" : "SCALAR"
        },
        {
            "bufferView" : 16,
            "componentType" : 5126,
            "count" : 7181,
            "max" : [
                35.959327697753906,
                28.062206268310547,
                49.102752685546875
            ],
            "min" : [
                -35.21125793457031,
                -25.96200180053711,
                -50.4870719909668
            ],
            "type" : "VEC3"
        },
        {
            "bufferView" : 17,
            "componentType" : 5126,
            "count" : 7181,
            "type" : "VEC3"
        },
        {
            "bufferView" : 18,
            "componentType" : 5126,
            "count" : 7181,
            "type" : "VEC2"
        },
        {
            "bufferView" : 19,
            "componentType" : 5123,
            "count" : 37284,
            "type" : "SCALAR"
        }
    ],
    "bufferViews" : [
        {
            "buffer" : 0,
            "byteLength" : 480,
            "byteOffset" : 0
        },
        {
            "buffer" : 0,
            "byteLength" : 480,
            "byteOffset" : 480
        },
        {
            "buffer" : 0,
            "byteLength" : 320,
            "byteOffset" : 960
        },
        {
            "buffer" : 0,
            "byteLength" : 120,
            "byteOffset" : 1280
        },
        {
            "buffer" : 0,
            "byteLength" : 144,
            "byteOffset" : 1400
        },
        {
            "buffer" : 0,
            "byteLength" : 144,
            "byteOffset" : 1544
        },
        {
            "buffer" : 0,
            "byteLength" : 96,
            "byteOffset" : 1688
        },
        {
            "buffer" : 0,
            "byteLength" : 60,
            "byteOffset" : 1784
        },
        {
            "buffer" : 0,
            "byteLength" : 144,
            "byteOffset" : 1844
        },
        {
            "buffer" : 0,
            "byteLength" : 144,
            "byteOffset" : 1988
        },
        {
            "buffer" : 0,
            "byteLength" : 96,
            "byteOffset" : 2132
        },
        {
            "buffer" : 0,
            "byteLength" : 60,
            "byteOffset" : 2228
        },
        {
            "buffer" : 0,
            "byteLength" : 63204,
            "byteOffset" : 2288
        },
        {
            "buffer" : 0,
            "byteLength" : 63204,
            "byteOffset" : 65492
        },
        {
            "buffer" : 0,
            "byteLength" : 42136,
            "byteOffset" : 128696
        },
        {
            "buffer" : 0,
            "byteLength" : 52938,
            "byteOffset" : 170832
        },
        {
            "buffer" : 0,
            "byteLength" : 86172,
            "byteOffset" : 223772
        },
        {
            "buffer" : 0,
            "byteLength" : 86172,
            "byteOffset" : 309944
        },
        {
            "buffer" : 0,
            "byteLength" : 57448,
            "byteOffset" : 396116
        },
        {
            "buffer" : 0,
            "byteLength" : 74568,
            "byteOffset" : 453564
        }
    ],
    "buffers" : [
        {
            "byteLength" : 528132,
            "uri" : "data:application/octet-stream;base64,"
        }
    ]
}
