{"accessors":[{"bufferView":0,"byteOffset":0,"componentType":5126,"count":384,"max":[15.5,5.5,10.5],"min":[-15.5,-5.5,-10.5],"normalized":false,"type":"VEC3"},{"bufferView":1,"byteOffset":0,"componentType":5126,"count":384,"max":[0.015998,0,0.999969,1],"min":[-0.999969,-0.999872,-1,-1],"normalized":false,"type":"VEC4"},{"bufferView":2,"byteOffset":0,"componentType":5126,"count":384,"max":[1,1,1],"min":[-1,-1,-1],"normalized":false,"type":"VEC3"},{"bufferView":3,"byteOffset":0,"componentType":5126,"count":384,"max":[1,1],"min":[0,0],"normalized":false,"type":"VEC2"},{"bufferView":4,"byteOffset":0,"componentType":5125,"count":384,"max":[383],"min":[0],"normalized":false,"type":"SCALAR"}],"asset":{"generator":"Godot Engine v3.5.rc3.official@af8a02ddafd64f0195956c74c6a60bf389af278f","version":"2.0"},"bufferViews":[{"buffer":0,"byteLength":4608,"byteOffset":0},{"buffer":0,"byteLength":6144,"byteOffset":4608},{"buffer":0,"byteLength":4608,"byteOffset":10752},{"buffer":0,"byteLength":3072,"byteOffset":15360},{"buffer":0,"byteLength":1536,"byteOffset":18432}],"buffers":[{"byteLength":19968,"uri":"Sanctuary_BedroomMesh0.bin"}],"extensionsRequired":["KHR_texture_transform"],"extensionsUsed":["KHR_lights_punctual","KHR_texture_transform"],"meshes":[{"extras":{"targetNames":[]},"primitives":[{"attributes":{"NORMAL":2,"POSITION":0,"TANGENT":1,"TEXCOORD_0":3},"indices":4,"mode":4}]}],"nodes":[{"children":[1,2,3,4,5],"extensions":{},"mesh":0,"name":"Sanctuary_BedroomMesh2","translation":[91,-3,-10.5]},{"extensions":{},"name":"CSGBox3"},{"extensions":{},"name":"Doorway","translation":[-14.5,0,0]},{"extensions":{},"name":"Doorway2","rotation":[0,0.707107,0,0.707107],"translation":[-1.99999,0,11]},{"extensions":{},"name":"Portal","rotation":[0,0.707107,0,0.707107],"translation":[-15.5,0,0]},{"extensions":{},"name":"Portal2","rotation":[0,1,0,-0],"translation":[-1.99999,0,10.5]}],"scene":0,"scenes":[{"nodes":[0]}]}