{"accessors":[{"bufferView":0,"byteOffset":0,"componentType":5126,"count":246,"max":[9,5.5,10.5],"min":[-9,-5.5,-10.5],"normalized":false,"type":"VEC3"},{"bufferView":1,"byteOffset":0,"componentType":5126,"count":246,"max":[0,0,0.999969,1],"min":[-0.999969,-0.999872,-1,-1],"normalized":false,"type":"VEC4"},{"bufferView":2,"byteOffset":0,"componentType":5126,"count":246,"max":[1,1,1],"min":[-1,-1,-1],"normalized":false,"type":"VEC3"},{"bufferView":3,"byteOffset":0,"componentType":5126,"count":246,"max":[1,1],"min":[0,0],"normalized":false,"type":"VEC2"},{"bufferView":4,"byteOffset":0,"componentType":5125,"count":246,"max":[245],"min":[0],"normalized":false,"type":"SCALAR"}],"asset":{"generator":"Godot Engine v3.5.rc3.official@af8a02ddafd64f0195956c74c6a60bf389af278f","version":"2.0"},"bufferViews":[{"buffer":0,"byteLength":2952,"byteOffset":0},{"buffer":0,"byteLength":3936,"byteOffset":2952},{"buffer":0,"byteLength":2952,"byteOffset":6888},{"buffer":0,"byteLength":1968,"byteOffset":9840},{"buffer":0,"byteLength":984,"byteOffset":11808}],"buffers":[{"byteLength":12792,"uri":"Sanctuary_BathroomMesh0.bin"}],"extensionsRequired":["KHR_texture_transform"],"extensionsUsed":["KHR_lights_punctual","KHR_texture_transform"],"meshes":[{"extras":{"targetNames":[]},"primitives":[{"attributes":{"NORMAL":2,"POSITION":0,"TANGENT":1,"TEXCOORD_0":3},"indices":4,"mode":4}]}],"nodes":[{"children":[1,2],"extensions":{},"mesh":0,"name":"Sanctuary_BathroomMesh2","translation":[92,-3,10.5]},{"extensions":{},"name":"CSGBox4"},{"extensions":{},"name":"Doorway3","rotation":[0,0.707107,0,0.707107],"translation":[-2.99999,0,-10]}],"scene":0,"scenes":[{"nodes":[0]}]}