{
    "asset" : {
        "generator" : "Khronos glTF Blender I/O v1.8.19",
        "version" : "2.0"
    },
    "scene" : 0,
    "scenes" : [
        {
            "name" : "Scene",
            "nodes" : [
                0
            ]
        }
    ],
    "nodes" : [
        {
            "mesh" : 0,
            "name" : "Sanctuary_EntranceMesh2",
            "translation" : [
                0,
                0,
                19
            ]
        }
    ],
    "materials" : [
        {
            "doubleSided" : true,
            "name" : "Sanctuary_Entrance_Material",
            "pbrMetallicRoughness" : {
                "baseColorFactor" : [
                    0.8000000715255737,
                    0.001943710958585143,
                    0.6338585019111633,
                    1
                ],
                "metallicFactor" : 0,
                "roughnessFactor" : 0.5
            }
        }
    ],
    "meshes" : [
        {
            "name" : "Mesh_0.018",
            "primitives" : [
                {
                    "attributes" : {
                        "POSITION" : 0,
                        "NORMAL" : 1,
                        "TEXCOORD_0" : 2
                    },
                    "indices" : 3,
                    "material" : 0
                }
            ]
        }
    ],
    "accessors" : [
        {
            "bufferView" : 0,
            "componentType" : 5126,
            "count" : 5268,
            "max" : [
                15.623842239379883,
                8.452442169189453,
                8.49116039276123
            ],
            "min" : [
                -14.997902870178223,
                -8.413300514221191,
                -8.362712860107422
            ],
            "type" : "VEC3"
        },
        {
            "bufferView" : 1,
            "componentType" : 5126,
            "count" : 5268,
            "type" : "VEC3"
        },
        {
            "bufferView" : 2,
            "componentType" : 5126,
            "count" : 5268,
            "type" : "VEC2"
        },
        {
            "bufferView" : 3,
            "componentType" : 5123,
            "count" : 26469,
            "type" : "SCALAR"
        }
    ],
    "bufferViews" : [
        {
            "buffer" : 0,
            "byteLength" : 63216,
            "byteOffset" : 0
        },
        {
            "buffer" : 0,
            "byteLength" : 63216,
            "byteOffset" : 63216
        },
        {
            "buffer" : 0,
            "byteLength" : 42144,
            "byteOffset" : 126432
        },
        {
            "buffer" : 0,
            "byteLength" : 52938,
            "byteOffset" : 168576
        }
    ],
    "buffers" : [
        {
            "byteLength" : 221516,
            "uri" : "data:application/octet-stream;base64,"
        }
    ]
}
