{
    "asset" : {
        "generator" : "Khronos glTF Blender I/O v1.8.19",
        "version" : "2.0"
    },
    "scene" : 0,
    "scenes" : [
        {
            "name" : "Scene",
            "nodes" : [
                0
            ]
        }
    ],
    "nodes" : [
        {
            "mesh" : 0,
            "name" : "Sanctuary_MainChambersMesh2",
            "translation" : [
                45.5,
                13,
                19
            ]
        }
    ],
    "materials" : [
        {
            "doubleSided" : true,
            "name" : "Sanctuary_MainChanbers_Material",
            "pbrMetallicRoughness" : {
                "baseColorFactor" : [
                    0.8000000715255737,
                    0,
                    0.7928572297096252,
                    1
                ],
                "metallicFactor" : 0,
                "roughnessFactor" : 0.5
            }
        }
    ],
    "meshes" : [
        {
            "name" : "Mesh_0.019",
            "primitives" : [
                {
                    "attributes" : {
                        "POSITION" : 0,
                        "NORMAL" : 1,
                        "TEXCOORD_0" : 2
                    },
                    "indices" : 3,
                    "material" : 0
                }
            ]
        }
    ],
    "accessors" : [
        {
            "bufferView" : 0,
            "componentType" : 5126,
            "count" : 14991,
            "max" : [
                40.42823028564453,
                31.657485961914062,
                50.07448959350586
            ],
            "min" : [
                -35.49010467529297,
                -26.338363647460938,
                -51.25582504272461
            ],
            "type" : "VEC3"
        },
        {
            "bufferView" : 1,
            "componentType" : 5126,
            "count" : 14991,
            "type" : "VEC3"
        },
        {
            "bufferView" : 2,
            "componentType" : 5126,
            "count" : 14991,
            "type" : "VEC2"
        },
        {
            "bufferView" : 3,
            "componentType" : 5123,
            "count" : 69240,
            "type" : "SCALAR"
        }
    ],
    "bufferViews" : [
        {
            "buffer" : 0,
            "byteLength" : 179892,
            "byteOffset" : 0
        },
        {
            "buffer" : 0,
            "byteLength" : 179892,
            "byteOffset" : 179892
        },
        {
            "buffer" : 0,
            "byteLength" : 119928,
            "byteOffset" : 359784
        },
        {
            "buffer" : 0,
            "byteLength" : 138480,
            "byteOffset" : 479712
        }
    ],
    "buffers" : [
        {
            "byteLength" : 618192,
            "uri" : "data:application/octet-stream;base64,"
        }
    ]
}
