{"accessors":[{"bufferView":0,"byteOffset":0,"componentType":5126,"count":189,"max":[15.5,8.5,8.5],"min":[-15.5,-8.5,-8.5],"normalized":false,"type":"VEC3"},{"bufferView":1,"byteOffset":0,"componentType":5126,"count":189,"max":[0.015998,0,0.015998,1],"min":[-0.999969,-0.999872,-1,-1],"normalized":false,"type":"VEC4"},{"bufferView":2,"byteOffset":0,"componentType":5126,"count":189,"max":[1,1,1],"min":[-1,-1,-1],"normalized":false,"type":"VEC3"},{"bufferView":3,"byteOffset":0,"componentType":5126,"count":189,"max":[1,1],"min":[0,0],"normalized":false,"type":"VEC2"},{"bufferView":4,"byteOffset":0,"componentType":5125,"count":189,"max":[188],"min":[0],"normalized":false,"type":"SCALAR"},{"bufferView":5,"byteOffset":0,"componentType":5126,"count":75,"max":[-2.499989,-1,8.5],"min":[-11.49999,-8,7.5],"normalized":false,"type":"VEC3"},{"bufferView":6,"byteOffset":0,"componentType":5126,"count":75,"max":[0.016126,0.008063,0.015998,1],"min":[-0.016126,-0.999872,-1,1],"normalized":false,"type":"VEC4"},{"bufferView":7,"byteOffset":0,"componentType":5126,"count":75,"max":[1,1,0.007936],"min":[-1,-1,0],"normalized":false,"type":"VEC3"},{"bufferView":8,"byteOffset":0,"componentType":5126,"count":75,"max":[1,1],"min":[0,0],"normalized":false,"type":"VEC2"},{"bufferView":9,"byteOffset":0,"componentType":5125,"count":75,"max":[74],"min":[0],"normalized":false,"type":"SCALAR"}],"asset":{"generator":"Godot Engine v3.5.rc3.official@af8a02ddafd64f0195956c74c6a60bf389af278f","version":"2.0"},"bufferViews":[{"buffer":0,"byteLength":2268,"byteOffset":0},{"buffer":0,"byteLength":3024,"byteOffset":2268},{"buffer":0,"byteLength":2268,"byteOffset":5292},{"buffer":0,"byteLength":1512,"byteOffset":7560},{"buffer":0,"byteLength":756,"byteOffset":9072},{"buffer":0,"byteLength":900,"byteOffset":9828},{"buffer":0,"byteLength":1200,"byteOffset":10728},{"buffer":0,"byteLength":900,"byteOffset":11928},{"buffer":0,"byteLength":600,"byteOffset":12828},{"buffer":0,"byteLength":300,"byteOffset":13428}],"buffers":[{"byteLength":13728,"uri":"Sanctuary_EntranceMesh0.bin"}],"extensionsRequired":["KHR_texture_transform"],"extensionsUsed":["KHR_lights_punctual","KHR_texture_transform"],"meshes":[{"extras":{"targetNames":[]},"primitives":[{"attributes":{"NORMAL":2,"POSITION":0,"TANGENT":1,"TEXCOORD_0":3},"indices":4,"mode":4},{"attributes":{"NORMAL":7,"POSITION":5,"TANGENT":6,"TEXCOORD_0":8},"indices":9,"mode":4}]}],"nodes":[{"children":[1,2],"extensions":{},"mesh":0,"name":"Sanctuary_EntranceMesh2","translation":[0,0,19]},{"extensions":{},"name":"CSGBox2","translation":[1.5,0,0]},{"extensions":{},"name":"Hub6","translation":[-6.99999,-4.5,8.5]}],"scene":0,"scenes":[{"nodes":[0]}]}