{
    "asset" : {
        "generator" : "Khronos glTF Blender I/O v1.8.19",
        "version" : "2.0"
    },
    "scene" : 0,
    "scenes" : [
        {
            "name" : "Scene",
            "nodes" : [
                0
            ]
        }
    ],
    "nodes" : [
        {
            "mesh" : 0,
            "name" : "StairsFloor2andNurseryMesh2"
        }
    ],
    "materials" : [
        {
            "doubleSided" : true,
            "name" : "StairsFloor2andNursery_Walls",
            "pbrMetallicRoughness" : {
                "baseColorFactor" : [
                    0.03633308783173561,
                    0.8000000715255737,
                    0.004034349229186773,
                    1
                ],
                "metallicFactor" : 0,
                "roughnessFactor" : 0.5
            }
        },
        {
            "doubleSided" : true,
            "name" : "StairsFloor2andNursery_Ceiling",
            "pbrMetallicRoughness" : {
                "baseColorFactor" : [
                    0.8000000715255737,
                    0.006882894784212112,
                    0.007473922800272703,
                    1
                ],
                "metallicFactor" : 0,
                "roughnessFactor" : 0.5
            }
        },
        {
            "doubleSided" : true,
            "name" : "StairsFloor2andNursery_Floor",
            "pbrMetallicRoughness" : {
                "baseColorFactor" : [
                    0.03243890777230263,
                    0.03243890777230263,
                    0.03243890777230263,
                    1
                ],
                "metallicFactor" : 0,
                "roughnessFactor" : 0.5
            }
        }
    ],
    "meshes" : [
        {
            "name" : "Mesh_0.021",
            "primitives" : [
                {
                    "attributes" : {
                        "POSITION" : 0,
                        "NORMAL" : 1,
                        "TEXCOORD_0" : 2
                    },
                    "indices" : 3,
                    "material" : 0
                },
                {
                    "attributes" : {
                        "POSITION" : 4,
                        "NORMAL" : 5,
                        "TEXCOORD_0" : 6
                    },
                    "indices" : 7,
                    "material" : 1
                },
                {
                    "attributes" : {
                        "POSITION" : 8,
                        "NORMAL" : 9,
                        "TEXCOORD_0" : 10
                    },
                    "indices" : 11,
                    "material" : 2
                }
            ]
        }
    ],
    "accessors" : [
        {
            "bufferView" : 0,
            "componentType" : 5126,
            "count" : 66,
            "max" : [
                2.5,
                5.5,
                3
            ],
            "min" : [
                -46,
                -11.662951469421387,
                -4.5
            ],
            "type" : "VEC3"
        },
        {
            "bufferView" : 1,
            "componentType" : 5126,
            "count" : 66,
            "type" : "VEC3"
        },
        {
            "bufferView" : 2,
            "componentType" : 5126,
            "count" : 66,
            "type" : "VEC2"
        },
        {
            "bufferView" : 3,
            "componentType" : 5123,
            "count" : 117,
            "type" : "SCALAR"
        },
        {
            "bufferView" : 4,
            "componentType" : 5126,
            "count" : 20,
            "max" : [
                2.5,
                5.5,
                3
            ],
            "min" : [
                -46,
                -7.400001049041748,
                -4.5
            ],
            "type" : "VEC3"
        },
        {
            "bufferView" : 5,
            "componentType" : 5126,
            "count" : 20,
            "type" : "VEC3"
        },
        {
            "bufferView" : 6,
            "componentType" : 5126,
            "count" : 20,
            "type" : "VEC2"
        },
        {
            "bufferView" : 7,
            "componentType" : 5123,
            "count" : 30,
            "type" : "SCALAR"
        },
        {
            "bufferView" : 8,
            "componentType" : 5126,
            "count" : 21,
            "max" : [
                2.5,
                -1.3459140062332153,
                3
            ],
            "min" : [
                -46,
                -11.662951469421387,
                -4.5
            ],
            "type" : "VEC3"
        },
        {
            "bufferView" : 9,
            "componentType" : 5126,
            "count" : 21,
            "type" : "VEC3"
        },
        {
            "bufferView" : 10,
            "componentType" : 5126,
            "count" : 21,
            "type" : "VEC2"
        },
        {
            "bufferView" : 11,
            "componentType" : 5123,
            "count" : 33,
            "type" : "SCALAR"
        }
    ],
    "bufferViews" : [
        {
            "buffer" : 0,
            "byteLength" : 792,
            "byteOffset" : 0
        },
        {
            "buffer" : 0,
            "byteLength" : 792,
            "byteOffset" : 792
        },
        {
            "buffer" : 0,
            "byteLength" : 528,
            "byteOffset" : 1584
        },
        {
            "buffer" : 0,
            "byteLength" : 234,
            "byteOffset" : 2112
        },
        {
            "buffer" : 0,
            "byteLength" : 240,
            "byteOffset" : 2348
        },
        {
            "buffer" : 0,
            "byteLength" : 240,
            "byteOffset" : 2588
        },
        {
            "buffer" : 0,
            "byteLength" : 160,
            "byteOffset" : 2828
        },
        {
            "buffer" : 0,
            "byteLength" : 60,
            "byteOffset" : 2988
        },
        {
            "buffer" : 0,
            "byteLength" : 252,
            "byteOffset" : 3048
        },
        {
            "buffer" : 0,
            "byteLength" : 252,
            "byteOffset" : 3300
        },
        {
            "buffer" : 0,
            "byteLength" : 168,
            "byteOffset" : 3552
        },
        {
            "buffer" : 0,
            "byteLength" : 66,
            "byteOffset" : 3720
        }
    ],
    "buffers" : [
        {
            "byteLength" : 3788,
            "uri" : "data:application/octet-stream;base64,"
        }
    ]
}
