{
    "asset" : {
        "generator" : "Khronos glTF Blender I/O v1.8.19",
        "version" : "2.0"
    },
    "scene" : 0,
    "scenes" : [
        {
            "name" : "Scene",
            "nodes" : [
                0
            ]
        }
    ],
    "nodes" : [
        {
            "mesh" : 0,
            "name" : "StairsFloor1and2Mesh2",
            "translation" : [
                3,
                -6,
                0
            ]
        }
    ],
    "materials" : [
        {
            "doubleSided" : true,
            "name" : "StairsFloor1and2_Floor",
            "pbrMetallicRoughness" : {
                "baseColorFactor" : [
                    0.023422330617904663,
                    0.023422330617904663,
                    0.023422330617904663,
                    1
                ],
                "metallicFactor" : 0,
                "roughnessFactor" : 0.5
            }
        },
        {
            "doubleSided" : true,
            "name" : "StairsFloor1and2_Ceiling",
            "pbrMetallicRoughness" : {
                "baseColorFactor" : [
                    0.8000000715255737,
                    0.024212587624788284,
                    0.020762993022799492,
                    1
                ],
                "metallicFactor" : 0,
                "roughnessFactor" : 0.5
            }
        },
        {
            "doubleSided" : true,
            "name" : "StairsFloor1and2_Walls",
            "pbrMetallicRoughness" : {
                "baseColorFactor" : [
                    0.8000000715255737,
                    0.2531358599662781,
                    0.006480986252427101,
                    1
                ],
                "metallicFactor" : 0,
                "roughnessFactor" : 0.5
            }
        },
        {
            "doubleSided" : true,
            "name" : "StairsFloor1and2_Rails",
            "pbrMetallicRoughness" : {
                "baseColorFactor" : [
                    0.05374661833047867,
                    0.8000000715255737,
                    0.07365451008081436,
                    1
                ],
                "metallicFactor" : 0,
                "roughnessFactor" : 0.5
            }
        }
    ],
    "meshes" : [
        {
            "name" : "Mesh_0.020",
            "primitives" : [
                {
                    "attributes" : {
                        "POSITION" : 0,
                        "NORMAL" : 1,
                        "TEXCOORD_0" : 2
                    },
                    "indices" : 3,
                    "material" : 0
                },
                {
                    "attributes" : {
                        "POSITION" : 4,
                        "NORMAL" : 5,
                        "TEXCOORD_0" : 6
                    },
                    "indices" : 7,
                    "material" : 1
                },
                {
                    "attributes" : {
                        "POSITION" : 8,
                        "NORMAL" : 9,
                        "TEXCOORD_0" : 10
                    },
                    "indices" : 11,
                    "material" : 2
                },
                {
                    "attributes" : {
                        "POSITION" : 12,
                        "NORMAL" : 13,
                        "TEXCOORD_0" : 14
                    },
                    "indices" : 15,
                    "material" : 3
                }
            ]
        }
    ],
    "accessors" : [
        {
            "bufferView" : 0,
            "componentType" : 5126,
            "count" : 156,
            "max" : [
                6.5,
                7,
                7
            ],
            "min" : [
                -7,
                -4.5,
                -6.5
            ],
            "type" : "VEC3"
        },
        {
            "bufferView" : 1,
            "componentType" : 5126,
            "count" : 156,
            "type" : "VEC3"
        },
        {
            "bufferView" : 2,
            "componentType" : 5126,
            "count" : 156,
            "type" : "VEC2"
        },
        {
            "bufferView" : 3,
            "componentType" : 5123,
            "count" : 246,
            "type" : "SCALAR"
        },
        {
            "bufferView" : 4,
            "componentType" : 5126,
            "count" : 12,
            "max" : [
                6.5,
                10.5,
                7
            ],
            "min" : [
                -7,
                -0.4000000059604645,
                -6.5
            ],
            "type" : "VEC3"
        },
        {
            "bufferView" : 5,
            "componentType" : 5126,
            "count" : 12,
            "type" : "VEC3"
        },
        {
            "bufferView" : 6,
            "componentType" : 5126,
            "count" : 12,
            "type" : "VEC2"
        },
        {
            "bufferView" : 7,
            "componentType" : 5123,
            "count" : 18,
            "type" : "SCALAR"
        },
        {
            "bufferView" : 8,
            "componentType" : 5126,
            "count" : 77,
            "max" : [
                6.5,
                10.5,
                7
            ],
            "min" : [
                -7,
                -4.5,
                -6.5
            ],
            "type" : "VEC3"
        },
        {
            "bufferView" : 9,
            "componentType" : 5126,
            "count" : 77,
            "type" : "VEC3"
        },
        {
            "bufferView" : 10,
            "componentType" : 5126,
            "count" : 77,
            "type" : "VEC2"
        },
        {
            "bufferView" : 11,
            "componentType" : 5123,
            "count" : 159,
            "type" : "SCALAR"
        },
        {
            "bufferView" : 12,
            "componentType" : 5126,
            "count" : 143,
            "max" : [
                3.5,
                7,
                4
            ],
            "min" : [
                -4,
                -4.5,
                -6.5
            ],
            "type" : "VEC3"
        },
        {
            "bufferView" : 13,
            "componentType" : 5126,
            "count" : 143,
            "type" : "VEC3"
        },
        {
            "bufferView" : 14,
            "componentType" : 5126,
            "count" : 143,
            "type" : "VEC2"
        },
        {
            "bufferView" : 15,
            "componentType" : 5123,
            "count" : 228,
            "type" : "SCALAR"
        }
    ],
    "bufferViews" : [
        {
            "buffer" : 0,
            "byteLength" : 1872,
            "byteOffset" : 0
        },
        {
            "buffer" : 0,
            "byteLength" : 1872,
            "byteOffset" : 1872
        },
        {
            "buffer" : 0,
            "byteLength" : 1248,
            "byteOffset" : 3744
        },
        {
            "buffer" : 0,
            "byteLength" : 492,
            "byteOffset" : 4992
        },
        {
            "buffer" : 0,
            "byteLength" : 144,
            "byteOffset" : 5484
        },
        {
            "buffer" : 0,
            "byteLength" : 144,
            "byteOffset" : 5628
        },
        {
            "buffer" : 0,
            "byteLength" : 96,
            "byteOffset" : 5772
        },
        {
            "buffer" : 0,
            "byteLength" : 36,
            "byteOffset" : 5868
        },
        {
            "buffer" : 0,
            "byteLength" : 924,
            "byteOffset" : 5904
        },
        {
            "buffer" : 0,
            "byteLength" : 924,
            "byteOffset" : 6828
        },
        {
            "buffer" : 0,
            "byteLength" : 616,
            "byteOffset" : 7752
        },
        {
            "buffer" : 0,
            "byteLength" : 318,
            "byteOffset" : 8368
        },
        {
            "buffer" : 0,
            "byteLength" : 1716,
            "byteOffset" : 8688
        },
        {
            "buffer" : 0,
            "byteLength" : 1716,
            "byteOffset" : 10404
        },
        {
            "buffer" : 0,
            "byteLength" : 1144,
            "byteOffset" : 12120
        },
        {
            "buffer" : 0,
            "byteLength" : 456,
            "byteOffset" : 13264
        }
    ],
    "buffers" : [
        {
            "byteLength" : 13720,
            "uri" : "data:application/octet-stream;base64,"
        }
    ]
}
