{"accessors":[{"bufferView":0,"byteOffset":0,"componentType":5126,"count":1392,"max":[4,2.5,5.5],"min":[-69.5,-34.53294,-66.5],"normalized":false,"type":"VEC3"},{"bufferView":1,"byteOffset":0,"componentType":5126,"count":1392,"max":[0.999969,0.982976,0.999969,1],"min":[-0.999969,-0.999872,-1,-1],"normalized":false,"type":"VEC4"},{"bufferView":2,"byteOffset":0,"componentType":5126,"count":1392,"max":[1,1,1],"min":[-1,-1,-1],"normalized":false,"type":"VEC3"},{"bufferView":3,"byteOffset":0,"componentType":5126,"count":1392,"max":[1,1],"min":[0,0],"normalized":false,"type":"VEC2"},{"bufferView":4,"byteOffset":0,"componentType":5125,"count":1392,"max":[1391],"min":[0],"normalized":false,"type":"SCALAR"},{"bufferView":5,"byteOffset":0,"componentType":5126,"count":78,"max":[-1.99999,-0.9,5.5],"min":[-3.99999,-4.9,5],"normalized":false,"type":"VEC3"},{"bufferView":6,"byteOffset":0,"componentType":5126,"count":78,"max":[0.999969,0.007936,0,1],"min":[0,-0.008063,-1,1],"normalized":false,"type":"VEC4"},{"bufferView":7,"byteOffset":0,"componentType":5126,"count":78,"max":[1,1,0],"min":[-1,-1,0],"normalized":false,"type":"VEC3"},{"bufferView":8,"byteOffset":0,"componentType":5126,"count":78,"max":[1,1],"min":[0,0],"normalized":false,"type":"VEC2"},{"bufferView":9,"byteOffset":0,"componentType":5125,"count":78,"max":[77],"min":[0],"normalized":false,"type":"SCALAR"}],"asset":{"generator":"Godot Engine v3.5.rc3.official@af8a02ddafd64f0195956c74c6a60bf389af278f","version":"2.0"},"bufferViews":[{"buffer":0,"byteLength":16704,"byteOffset":0},{"buffer":0,"byteLength":22272,"byteOffset":16704},{"buffer":0,"byteLength":16704,"byteOffset":38976},{"buffer":0,"byteLength":11136,"byteOffset":55680},{"buffer":0,"byteLength":5568,"byteOffset":66816},{"buffer":0,"byteLength":936,"byteOffset":72384},{"buffer":0,"byteLength":1248,"byteOffset":73320},{"buffer":0,"byteLength":936,"byteOffset":74568},{"buffer":0,"byteLength":624,"byteOffset":75504},{"buffer":0,"byteLength":312,"byteOffset":76128}],"buffers":[{"byteLength":76440,"uri":"StairsNurseryAndSanctuaryMesh0.bin"}],"extensionsRequired":["KHR_texture_transform"],"extensionsUsed":["KHR_lights_punctual","KHR_texture_transform"],"meshes":[{"extras":{"targetNames":[]},"primitives":[{"attributes":{"NORMAL":2,"POSITION":0,"TANGENT":1,"TEXCOORD_0":3},"indices":4,"mode":4},{"attributes":{"NORMAL":7,"POSITION":5,"TANGENT":6,"TEXCOORD_0":8},"indices":9,"mode":4}]}],"nodes":[{"children":[1,7],"extensions":{},"mesh":0,"name":"StairsNurseryAndSanctuaryMesh2"},{"children":[2,3,4,5,6],"extensions":{},"name":"Hull"},{"extensions":{},"name":"Hub","translation":[-1,-1.5,1]},{"extensions":{},"name":"Ramp1","rotation":[0,0,0.130526,0.991445],"translation":[-32,-9.5,1]},{"extensions":{},"name":"Ramp2","rotation":[-0.092296,-0.701057,0.092296,0.701057],"translation":[-64.5,-24,-30]},{"extensions":{},"name":"Hub2","translation":[-64.5,-16,1]},{"extensions":{},"name":"Hub3","translation":[-64.5,-30.5,-62]},{"children":[8,9,10,11,12,13,14,15],"extensions":{},"name":"Sub"},{"extensions":{},"name":"Hub4","translation":[-1,-1.5,1]},{"extensions":{},"name":"Ramp12","rotation":[0,0,0.130526,0.991445],"translation":[-32,-9.5,1]},{"extensions":{},"name":"Ramp22","rotation":[-0.092296,-0.701057,0.092296,0.701057],"translation":[-64.5,-24,-30]},{"extensions":{},"name":"Hub22","translation":[-64.5,-16,1]},{"extensions":{},"name":"Hub32","translation":[-64.5,-30.5,-62]},{"extensions":{},"name":"Hub42","translation":[-64.5,-16,1]},{"extensions":{},"name":"Hub5","translation":[-64.5,-30.5,-62.5]},{"extensions":{},"name":"DoorStairwell3","rotation":[0,-0.707107,0,0.707107],"translation":[-2.99999,-2.9,5.49997]}],"scene":0,"scenes":[{"nodes":[0]}]}