{
    "asset" : {
        "generator" : "Khronos glTF Blender I/O v1.8.19",
        "version" : "2.0"
    },
    "scene" : 0,
    "scenes" : [
        {
            "name" : "Scene",
            "nodes" : [
                0
            ]
        }
    ],
    "nodes" : [
        {
            "mesh" : 0,
            "name" : "StairsNurseryAndSanctuaryMesh2"
        }
    ],
    "materials" : [
        {
            "doubleSided" : true,
            "name" : "StairsNurseryAndSanctuary_Material",
            "pbrMetallicRoughness" : {
                "baseColorFactor" : [
                    0.8000000715255737,
                    0.021031305193901062,
                    0.5775796175003052,
                    1
                ],
                "metallicFactor" : 0,
                "roughnessFactor" : 0.5
            }
        }
    ],
    "meshes" : [
        {
            "name" : "Mesh_0.022",
            "primitives" : [
                {
                    "attributes" : {
                        "POSITION" : 0,
                        "NORMAL" : 1,
                        "TEXCOORD_0" : 2
                    },
                    "indices" : 3,
                    "material" : 0
                }
            ]
        }
    ],
    "accessors" : [
        {
            "bufferView" : 0,
            "componentType" : 5126,
            "count" : 1810,
            "max" : [
                3.7805159091949463,
                2.049696445465088,
                5.5
            ],
            "min" : [
                -68.99522399902344,
                -33.97557067871094,
                -66.50660705566406
            ],
            "type" : "VEC3"
        },
        {
            "bufferView" : 1,
            "componentType" : 5126,
            "count" : 1810,
            "type" : "VEC3"
        },
        {
            "bufferView" : 2,
            "componentType" : 5126,
            "count" : 1810,
            "type" : "VEC2"
        },
        {
            "bufferView" : 3,
            "componentType" : 5123,
            "count" : 6027,
            "type" : "SCALAR"
        }
    ],
    "bufferViews" : [
        {
            "buffer" : 0,
            "byteLength" : 21720,
            "byteOffset" : 0
        },
        {
            "buffer" : 0,
            "byteLength" : 21720,
            "byteOffset" : 21720
        },
        {
            "buffer" : 0,
            "byteLength" : 14480,
            "byteOffset" : 43440
        },
        {
            "buffer" : 0,
            "byteLength" : 12054,
            "byteOffset" : 57920
        }
    ],
    "buffers" : [
        {
            "byteLength" : 69976,
            "uri" : "data:application/octet-stream;base64,"
        }
    ]
}
